<svg xmlns="http://www.w3.org/2000/svg" xmlns:xlink="http://www.w3.org/1999/xlink" width="72" height="71.975" viewBox="0 0 72 71.975">
  <defs>
    <clipPath id="clip-path">
      <rect width="72" height="71.975" fill="none"/>
    </clipPath>
  </defs>
  <g id="bargain" clip-path="url(#clip-path)">
    <g id="Group_214" data-name="Group 214" transform="translate(60.042 56.792)">
      <g id="Group_213" data-name="Group 213">
        <path id="Path_1795" data-name="Path 1795" d="M429.368,404.354a1.405,1.405,0,1,0,.412.994A1.416,1.416,0,0,0,429.368,404.354Z" transform="translate(-426.968 -403.942)" fill="#969696"/>
      </g>
    </g>
    <g id="Group_216" data-name="Group 216" transform="translate(21.87 61.291)">
      <g id="Group_215" data-name="Group 215">
        <path id="Path_1796" data-name="Path 1796" d="M160.863,435.933a5.342,5.342,0,1,0,5.342,5.342A5.348,5.348,0,0,0,160.863,435.933Zm0,7.873a2.531,2.531,0,1,1,2.531-2.531A2.533,2.533,0,0,1,160.863,443.806Z" transform="translate(-155.521 -435.933)" fill="#969696"/>
      </g>
    </g>
    <g id="Group_218" data-name="Group 218" transform="translate(47.657 61.291)">
      <g id="Group_217" data-name="Group 217">
        <path id="Path_1797" data-name="Path 1797" d="M344.235,435.933a5.342,5.342,0,1,0,5.342,5.342A5.348,5.348,0,0,0,344.235,435.933Zm0,7.873a2.531,2.531,0,1,1,2.531-2.531A2.534,2.534,0,0,1,344.235,443.806Z" transform="translate(-338.893 -435.933)" fill="#969696"/>
      </g>
    </g>
    <g id="Group_220" data-name="Group 220" transform="translate(0 13.491)">
      <g id="Group_219" data-name="Group 219">
        <path id="Path_1798" data-name="Path 1798" d="M65.731,119.715a1.406,1.406,0,0,0-1.646,1.115l-2.043,10.607a1.408,1.408,0,0,1-1.381,1.14H20.091l-5.506-23.947H29.042a1.406,1.406,0,0,0,0-2.812h-15.1l-1.5-6.522a4.2,4.2,0,0,0-4.11-3.273H1.406a1.406,1.406,0,1,0,0,2.812H8.329A1.4,1.4,0,0,1,9.7,99.927l9.454,41.119a1.406,1.406,0,0,0,1.37,1.091H56.383a1.406,1.406,0,0,0,0-2.812H21.643l-.905-3.936H60.661a4.223,4.223,0,0,0,4.141-3.42l2.043-10.607A1.406,1.406,0,0,0,65.731,119.715Z" transform="translate(0 -96.025)" fill="#969696"/>
      </g>
    </g>
    <g id="Group_222" data-name="Group 222" transform="translate(34.577)">
      <g id="Group_221" data-name="Group 221" transform="translate(0 0)">
        <path id="Path_1799" data-name="Path 1799" d="M282.759,19.076a3.618,3.618,0,0,0-.545-4.5l-1.4-1.383a.823.823,0,0,1-.244-.645l.141-1.975a3.615,3.615,0,0,0-2.577-3.739l-1.859-.561a.823.823,0,0,1-.518-.461l-.778-1.8A3.657,3.657,0,0,0,270.939,1.9l-1.887.37a.822.822,0,0,1-.676-.167l-1.5-1.212a3.655,3.655,0,0,0-4.567,0l-1.5,1.212a.821.821,0,0,1-.676.167l-1.887-.37a3.657,3.657,0,0,0-4.036,2.121l-.778,1.8a.822.822,0,0,1-.518.461l-1.859.56a3.616,3.616,0,0,0-2.577,3.739l.141,1.976a.823.823,0,0,1-.244.645l-1.4,1.383a3.618,3.618,0,0,0-.545,4.5l1.038,1.687a.823.823,0,0,1,.083.684l-.608,1.889a3.618,3.618,0,0,0,1.6,4.239l1.683,1a.822.822,0,0,1,.391.57l.331,1.943a3.614,3.614,0,0,0,3.4,3.02l1.927.1a.822.822,0,0,1,.615.324l1.175,1.546a3.654,3.654,0,0,0,2.907,1.431,3.6,3.6,0,0,0,1.526-.337l1.742-.814a.821.821,0,0,1,.7,0l1.742.814a3.655,3.655,0,0,0,4.433-1.094l1.175-1.546a.822.822,0,0,1,.615-.324l1.928-.1a3.613,3.613,0,0,0,3.4-3.02l.331-1.943a.823.823,0,0,1,.391-.57l1.683-1a3.618,3.618,0,0,0,1.605-4.239l-.607-1.889a.822.822,0,0,1,.083-.684ZM280.365,17.6l-1.038,1.687a3.631,3.631,0,0,0-.365,3.018l.608,1.889a.82.82,0,0,1-.364.96l-1.683,1a3.63,3.63,0,0,0-1.728,2.515l-.331,1.942a.819.819,0,0,1-.771.684l-1.928.1a3.628,3.628,0,0,0-2.714,1.431l-1.175,1.546a.829.829,0,0,1-1,.248L266.13,33.8a3.627,3.627,0,0,0-3.077,0l-1.742.814a.828.828,0,0,1-1-.248l-1.175-1.546a3.628,3.628,0,0,0-2.714-1.431l-1.927-.1a.819.819,0,0,1-.771-.684l-.331-1.943a3.629,3.629,0,0,0-1.728-2.515l-1.683-1a.82.82,0,0,1-.364-.96l.607-1.889a3.632,3.632,0,0,0-.365-3.018L248.819,17.6a.82.82,0,0,1,.123-1.018l1.4-1.383a3.631,3.631,0,0,0,1.075-2.848l-.141-1.976a.819.819,0,0,1,.584-.847l1.859-.56a3.629,3.629,0,0,0,2.286-2.034l.779-1.8a.83.83,0,0,1,.758-.5.819.819,0,0,1,.156.015l1.886.37a3.625,3.625,0,0,0,2.984-.739l1.5-1.212a.828.828,0,0,1,1.035,0l1.5,1.212a3.628,3.628,0,0,0,2.984.739l1.886-.37a.827.827,0,0,1,.914.481l.778,1.8a3.628,3.628,0,0,0,2.286,2.035l1.859.561a.819.819,0,0,1,.584.847l-.141,1.975a3.631,3.631,0,0,0,1.075,2.848l1.4,1.383A.82.82,0,0,1,280.365,17.6Z" transform="translate(-245.88 -0.088)" fill="#969696"/>
      </g>
    </g>
    <g id="Group_224" data-name="Group 224" transform="translate(47.923 12.156)">
      <g id="Group_223" data-name="Group 223">
        <path id="Path_1800" data-name="Path 1800" d="M349.406,86.716a1.406,1.406,0,0,0-1.915.533L340.971,98.8a1.406,1.406,0,1,0,2.449,1.382l6.52-11.55A1.406,1.406,0,0,0,349.406,86.716Z" transform="translate(-340.789 -86.534)" fill="#969696"/>
      </g>
    </g>
    <g id="Group_226" data-name="Group 226" transform="translate(53.869 19.724)">
      <g id="Group_225" data-name="Group 225">
        <path id="Path_1801" data-name="Path 1801" d="M386.727,140.346A3.656,3.656,0,1,0,390.384,144,3.661,3.661,0,0,0,386.727,140.346Zm0,4.5a.845.845,0,1,1,.845-.845A.845.845,0,0,1,386.727,144.847Z" transform="translate(-383.071 -140.346)" fill="#969696"/>
      </g>
    </g>
    <g id="Group_228" data-name="Group 228" transform="translate(45.395 10.378)">
      <g id="Group_227" data-name="Group 227">
        <path id="Path_1802" data-name="Path 1802" d="M326.466,73.885a3.656,3.656,0,1,0,3.656,3.656A3.661,3.661,0,0,0,326.466,73.885Zm0,4.5a.845.845,0,1,1,.845-.845A.846.846,0,0,1,326.466,78.386Z" transform="translate(-322.81 -73.885)" fill="#969696"/>
      </g>
    </g>
  </g>
</svg>
