<svg xmlns="http://www.w3.org/2000/svg" xmlns:xlink="http://www.w3.org/1999/xlink" width="76" height="49" viewBox="0 0 76 49">
  <defs>
    <clipPath id="clip-path">
      <rect width="76" height="49" fill="none"/>
    </clipPath>
  </defs>
  <g id="blue_notifcation" clip-path="url(#clip-path)">
    <path id="Path_1844" data-name="Path 1844" d="M50.36,287.628a1.266,1.266,0,0,0,1.266-1.266V278a1.266,1.266,0,0,0-2.532,0v8.358A1.266,1.266,0,0,0,50.36,287.628Zm0,0" transform="translate(-41.438 -257.268)" fill="#5aacd0"/>
    <path id="Path_1845" data-name="Path 1845" d="M51.951,408.876l-.029-.009a1.266,1.266,0,1,0-.732,2.423l.029.009a1.254,1.254,0,0,0,.366.055,1.266,1.266,0,0,0,.365-2.478Zm0,0" transform="translate(-42.514 -376.109)" fill="#5aacd0"/>
    <g id="Rectangle_738" data-name="Rectangle 738" fill="none" stroke="#5aacd0" stroke-width="3">
      <rect width="76" height="49" rx="2" stroke="none"/>
      <rect x="1.5" y="1.5" width="73" height="46" rx="0.5" fill="none"/>
    </g>
    <g id="Path_1846" data-name="Path 1846" transform="translate(0 22.816)" fill="none">
      <path d="M33.752,2.821a6.744,6.744,0,0,1,7.5,0L73.063,23.838c4.429,3.066-2.564.808-1.1,2.346H4.668c-5.672,0-2.245-1.832,2.184-4.9Z" stroke="none"/>
      <path d="M 37.49999618530273 4.683752059936523 C 36.74699401855469 4.683752059936523 36.02224349975586 4.898365020751953 35.45927047729492 5.288051605224609 L 35.45444488525391 5.291389465332031 L 35.44961929321289 5.294702529907227 L 9.388526916503906 23.18375205993652 L 66.629150390625 23.18375205993652 L 39.59458160400391 5.324464797973633 L 39.56747055053711 5.306550979614258 L 39.54074478149414 5.288064956665039 C 38.97775650024414 4.898365020751953 38.25300598144531 4.683752059936523 37.49999618530273 4.683752059936523 M 37.5 1.683748245239258 C 38.82625579833984 1.683748245239258 40.15251541137695 2.062946319580078 41.2481689453125 2.821338653564453 L 73.06249237060547 23.83817672729492 C 75.346923828125 25.41941261291504 74.59203338623047 25.58436965942383 73.52629852294922 25.58436965942383 C 73.24570465087891 25.58436965942383 72.94358825683594 25.57295227050781 72.66963195800781 25.57295227050781 C 71.96683502197266 25.57295227050781 71.45001220703125 25.64799499511719 71.958984375 26.18375205993652 L 4.66796875 26.18375205993652 C -1.003692626953125 26.18375205993652 2.4227294921875 24.35197639465332 6.851554870605469 21.28642654418945 L 33.7518310546875 2.821338653564453 C 34.84748840332031 2.062946319580078 36.17374420166016 1.683748245239258 37.5 1.683748245239258 Z" stroke="none" fill="#5aacd0"/>
    </g>
    <g id="Path_1847" data-name="Path 1847" transform="translate(76.252 28.047) rotate(180)" fill="none">
      <path d="M33.752,2.83a6.7,6.7,0,0,1,7.5,0L73.063,24c4.429,3.088-2.564.814-1.1,2.363H4.668c-5.672,0-2.245-1.845,2.184-4.933Z" stroke="none"/>
      <path d="M 37.49999618530273 4.683742523193359 C 36.75064468383789 4.683742523193359 36.02889633178711 4.899242401123047 35.46770858764648 5.290542602539062 L 35.46289443969727 5.293891906738281 L 35.45806884765625 5.297229766845703 L 9.330390930175781 23.36375427246094 L 66.68988800048828 23.36375427246094 L 39.58615875244141 5.327228546142578 L 39.55903244018555 5.309179306030273 L 39.53230667114258 5.290554046630859 C 38.97110748291016 4.899242401123047 38.24934387207031 4.683742523193359 37.49999618530273 4.683742523193359 M 37.5 1.683748245239258 C 38.82625579833984 1.683748245239258 40.15251541137695 2.065729141235352 41.2481689453125 2.829690933227539 L 73.06249237060547 24.00094223022461 C 75.34719848632812 25.59398460388184 74.59222412109375 25.75996780395508 73.52629089355469 25.75996780395508 C 73.24580383300781 25.75996780395508 72.94347381591797 25.74846649169922 72.66963958740234 25.74846649169922 C 71.96684265136719 25.74846649169922 71.45001220703125 25.82406044006348 71.958984375 26.36375427246094 L 4.66796875 26.36375427246094 C -1.003692626953125 26.36375427246094 2.4227294921875 24.51851654052734 6.851554870605469 21.43044281005859 L 33.7518310546875 2.829690933227539 C 34.84748840332031 2.065729141235352 36.17374420166016 1.683748245239258 37.5 1.683748245239258 Z" stroke="none" fill="#5aacd0"/>
    </g>
  </g>
</svg>
