<svg xmlns="http://www.w3.org/2000/svg" xmlns:xlink="http://www.w3.org/1999/xlink" width="60.006" height="60.001" viewBox="0 0 60.006 60.001">
  <defs>
    <clipPath id="clip-path">
      <rect width="60.006" height="60.001" fill="none"/>
    </clipPath>
  </defs>
  <g id="call_red" clip-path="url(#clip-path)">
    <g id="Group_233" data-name="Group 233">
      <g id="Group_232" data-name="Group 232" transform="translate(0 0)">
        <path id="Path_1808" data-name="Path 1808" d="M59.431,47.307l-12.145-8.1a3.545,3.545,0,0,0-4.747.771L39,44.527a1.512,1.512,0,0,1-1.939.408l-.673-.371c-2.231-1.216-5.007-2.73-10.6-8.325s-7.11-8.373-8.326-10.6l-.369-.673a1.514,1.514,0,0,1,.4-1.946l4.546-3.537a3.547,3.547,0,0,0,.772-4.747l-8.1-12.145A3.526,3.526,0,0,0,9.96,1.522L4.881,4.573a7.164,7.164,0,0,0-3.267,4.24C-.214,15.477,1.162,26.977,18.1,43.92c13.476,13.475,23.509,17.1,30.4,17.1a17.716,17.716,0,0,0,4.7-.614,7.157,7.157,0,0,0,4.24-3.267L60.5,52.063A3.527,3.527,0,0,0,59.431,47.307Zm-.654,3.73-3.047,5.079a5.168,5.168,0,0,1-3.05,2.364c-6.152,1.689-16.9.29-33.163-15.974S1.855,15.495,3.543,9.342A5.176,5.176,0,0,1,5.91,6.288l5.079-3.047a1.53,1.53,0,0,1,2.063.464l4.4,6.606,3.693,5.539a1.539,1.539,0,0,1-.334,2.06l-4.547,3.537a3.5,3.5,0,0,0-.927,4.492l.361.656c1.278,2.344,2.867,5.26,8.668,11.059s8.716,7.389,11.058,8.666l.657.362a3.5,3.5,0,0,0,4.492-.927l3.537-4.547a1.54,1.54,0,0,1,2.06-.334l12.144,8.1A1.529,1.529,0,0,1,58.777,51.037Z" transform="translate(-1 -1.018)" fill="#b7264b"/>
        <path id="Path_1809" data-name="Path 1809" d="M283.628,71.324a17.018,17.018,0,0,1,17,17,1,1,0,0,0,2,0,19.02,19.02,0,0,0-19-19,1,1,0,1,0,0,2Z" transform="translate(-249.627 -61.32)" fill="#b7264b"/>
        <path id="Path_1810" data-name="Path 1810" d="M283.628,122.524a11.012,11.012,0,0,1,11,11,1,1,0,0,0,2,0,13.014,13.014,0,0,0-13-13,1,1,0,1,0,0,2Z" transform="translate(-249.627 -106.52)" fill="#b7264b"/>
        <path id="Path_1811" data-name="Path 1811" d="M283.628,173.724a5.006,5.006,0,0,1,5,5,1,1,0,1,0,2,0,7.008,7.008,0,0,0-7-7,1,1,0,1,0,0,2Z" transform="translate(-249.627 -151.72)" fill="#b7264b"/>
      </g>
    </g>
  </g>
</svg>
