<svg xmlns="http://www.w3.org/2000/svg" xmlns:xlink="http://www.w3.org/1999/xlink" width="70" height="70" viewBox="0 0 70 70">
  <defs>
    <clipPath id="clip-path">
      <rect width="70" height="70" fill="none"/>
    </clipPath>
  </defs>
  <g id="checkmarkـsquare" clip-path="url(#clip-path)">
    <path id="checkmarkـsquare-2" data-name="checkmarkـsquare" d="M12.722,3H63.278A9.722,9.722,0,0,1,73,12.722V63.278A9.722,9.722,0,0,1,63.278,73H12.722A9.722,9.722,0,0,1,3,63.278V12.722A9.722,9.722,0,0,1,12.722,3Zm0,3.889a5.833,5.833,0,0,0-5.833,5.833V63.278a5.833,5.833,0,0,0,5.833,5.833H63.278a5.833,5.833,0,0,0,5.833-5.833V12.722a5.833,5.833,0,0,0-5.833-5.833ZM50.236,26.9a1.944,1.944,0,0,1,2.75,2.75L33.542,49.1a1.944,1.944,0,0,1-2.75,0l-7.778-7.778a1.944,1.944,0,1,1,2.75-2.75l6.4,6.4Z" transform="translate(-3 -3)" fill="#5aacd0"/>
  </g>
</svg>
