<svg xmlns="http://www.w3.org/2000/svg" xmlns:xlink="http://www.w3.org/1999/xlink" width="164" height="164" viewBox="0 0 164 164">
  <defs>
    <clipPath id="clip-path">
      <rect width="164" height="164" fill="none"/>
    </clipPath>
    <filter id="Ellipse_110" x="0" y="0" width="164" height="164" filterUnits="userSpaceOnUse">
      <feOffset dy="3" input="SourceAlpha"/>
      <feGaussianBlur stdDeviation="3" result="blur"/>
      <feFlood flood-color="#222" flood-opacity="0.251"/>
      <feComposite operator="in" in2="blur"/>
      <feComposite in="SourceGraphic"/>
    </filter>
  </defs>
  <g id="close_page" clip-path="url(#clip-path)">
    <g transform="matrix(1, 0, 0, 1, 0, 0)" filter="url(#Ellipse_110)">
      <g id="Ellipse_110-2" data-name="Ellipse 110" transform="translate(9 6)" fill="#66b1d2" stroke="#d3d3d3" stroke-width="1">
        <circle cx="73" cy="73" r="73" stroke="none"/>
        <circle cx="73" cy="73" r="72.5" fill="none"/>
      </g>
    </g>
    <path id="close" d="M32.174,28.614,53.05,7.737a2.517,2.517,0,0,1,3.56,3.56L35.734,32.174,56.61,53.05a2.517,2.517,0,0,1-3.56,3.56L32.174,35.734,11.3,56.61a2.517,2.517,0,0,1-3.56-3.56L28.614,32.174,7.737,11.3a2.517,2.517,0,0,1,3.56-3.56Z" transform="translate(49.826 46.826)" fill="#fff"/>
  </g>
</svg>
