<svg xmlns="http://www.w3.org/2000/svg" xmlns:xlink="http://www.w3.org/1999/xlink" width="72" height="68.396" viewBox="0 0 72 68.396">
  <defs>
    <clipPath id="clip-path">
      <rect width="72" height="68.396" fill="none"/>
    </clipPath>
  </defs>
  <g id="contact" clip-path="url(#clip-path)">
    <g id="Group_44" data-name="Group 44">
      <g id="Group_43" data-name="Group 43" transform="translate(0 0)">
        <path id="Path_1073" data-name="Path 1073" d="M68.94,12.813H18.648a3.064,3.064,0,0,0-3.061,3.061V29.746l-2.3-3.45a3.556,3.556,0,0,0-4.8-1.08L3.755,28.06A6.942,6.942,0,0,0,.584,32.174C-1.142,38.459.138,49.287,16.031,65.182,28.67,77.808,38.094,81.208,44.589,81.208a16.769,16.769,0,0,0,4.453-.581,6.954,6.954,0,0,0,4.115-3.168L56,72.724a3.557,3.557,0,0,0-1.08-4.8l-11.33-7.552a3.576,3.576,0,0,0-4.787.777l-3.3,4.241a1.149,1.149,0,0,1-1.469.311l-.628-.346c-2.066-1.126-4.637-2.528-9.829-7.72-.562-.562-1.071-1.087-1.548-1.59H68.94A3.058,3.058,0,0,0,72,53V15.874A3.064,3.064,0,0,0,68.94,12.813ZM32.257,67.466l.61.335a3.536,3.536,0,0,0,4.531-.934l3.3-4.241a1.167,1.167,0,0,1,1.56-.253l11.33,7.552a1.159,1.159,0,0,1,.352,1.56L51.1,76.222a4.561,4.561,0,0,1-2.69,2.089c-5.674,1.56-15.6.24-30.675-14.832s-16.386-25-14.83-30.67a4.561,4.561,0,0,1,2.087-2.69l4.736-2.842a1.161,1.161,0,0,1,1.56.352l7.556,11.33a1.165,1.165,0,0,1-.253,1.56l-4.242,3.3a3.535,3.535,0,0,0-.934,4.53l.336.61c1.2,2.2,2.692,4.94,8.131,10.378S30.057,66.266,32.257,67.466ZM69.6,53a.655.655,0,0,1-.66.648H19.863a30.27,30.27,0,0,1-4.005-5.838l-.346-.63a1.145,1.145,0,0,1,.31-1.467l4.242-3.3a3.575,3.575,0,0,0,.777-4.787l-2.852-4.28V15.874a.653.653,0,0,1,.66-.66H68.94a.653.653,0,0,1,.66.66V53Z" transform="translate(-0.001 -12.813)" fill="#969696"/>
        <path id="Path_1074" data-name="Path 1074" d="M192.257,50.832,172.2,66.046a1.619,1.619,0,0,1-1.9,0L150.24,50.832a1.2,1.2,0,1,0-1.451,1.913l20.056,15.213a4.04,4.04,0,0,0,4.8,0l20.062-15.213a1.2,1.2,0,0,0-1.45-1.913Z" transform="translate(-127.452 -45.274)" fill="#969696"/>
        <path id="Path_1075" data-name="Path 1075" d="M161.428,172.746l-12.3,13.167a1.2,1.2,0,1,0,1.756,1.637l12.3-13.173a1.2,1.2,0,0,0-1.756-1.631Z" transform="translate(-127.878 -149.962)" fill="#969696"/>
        <path id="Path_1076" data-name="Path 1076" d="M372.03,172.46a1.2,1.2,0,0,0-1.756,1.637l12.292,13.167a1.2,1.2,0,0,0,1.756-1.637Z" transform="translate(-317.914 -149.676)" fill="#969696"/>
      </g>
    </g>
  </g>
</svg>
