<svg xmlns="http://www.w3.org/2000/svg" xmlns:xlink="http://www.w3.org/1999/xlink" width="82.323" height="82.319" viewBox="0 0 82.323 82.319">
  <defs>
    <clipPath id="clip-path">
      <rect width="82.323" height="82.319" fill="none"/>
    </clipPath>
  </defs>
  <g id="credit_card" clip-path="url(#clip-path)">
    <g id="Group_199" data-name="Group 199">
      <g id="Group_198" data-name="Group 198" transform="translate(0 0)">
        <path id="Path_1312" data-name="Path 1312" d="M80.138,28.261,54.07,2.193a7.49,7.49,0,0,0-10.569,0L2.182,43.512a7.489,7.489,0,0,0,0,10.568L5.4,57.3h0L27,78.9H24.01a1.715,1.715,0,0,0,0,3.43h34.3a1.715,1.715,0,0,0,0-3.43H40.067L80.138,38.829A7.482,7.482,0,0,0,80.138,28.261ZM77.713,36.4l-41.32,41.32A4.014,4.014,0,0,1,33.54,78.9h-.013a4.012,4.012,0,0,1-2.852-1.177L9.035,56.083,48.717,16.4a1.715,1.715,0,1,0-2.425-2.425L6.61,53.658l-2-2a4.06,4.06,0,0,1,0-5.718L45.927,4.618a4.06,4.06,0,0,1,5.718,0L60.923,13.9,21.241,53.578A1.715,1.715,0,1,0,23.666,56L63.348,16.322,77.713,30.686A4.048,4.048,0,0,1,77.713,36.4Z" transform="translate(0 -0.011)" fill="#b7264b"/>
        <path id="Path_1313" data-name="Path 1313" d="M177.081,305.443a1.715,1.715,0,0,0-2.425,0l-13.5,13.5a1.715,1.715,0,1,0,2.425,2.425l13.5-13.5A1.715,1.715,0,0,0,177.081,305.443Z" transform="translate(-134.826 -255.912)" fill="#b7264b"/>
        <path id="Path_1314" data-name="Path 1314" d="M196.864,385.119l-5.535,5.535a1.715,1.715,0,1,0,2.425,2.425l5.535-5.535a1.715,1.715,0,1,0-2.425-2.425Z" transform="translate(-160.144 -322.777)" fill="#b7264b"/>
        <path id="Path_1315" data-name="Path 1315" d="M253.634,353.444l-.728.727a1.715,1.715,0,1,0,2.425,2.425l.728-.727a1.715,1.715,0,0,0-2.425-2.425Z" transform="translate(-211.821 -296.195)" fill="#b7264b"/>
        <path id="Path_1316" data-name="Path 1316" d="M353.814,161.171a1.715,1.715,0,0,0-2.425,0l-7.276,7.276a1.715,1.715,0,0,0,0,2.425l4.851,4.85a1.715,1.715,0,0,0,2.425,0l7.276-7.276a1.715,1.715,0,0,0,0-2.425Zm-3.638,10.914-2.425-2.425,4.851-4.851,2.425,2.425Z" transform="translate(-288.362 -134.837)" fill="#b7264b"/>
        <path id="Path_1317" data-name="Path 1317" d="M311.388,58.485a1.709,1.709,0,0,0,1.213-.5l.728-.728a1.715,1.715,0,0,0-2.426-2.425l-.728.728a1.715,1.715,0,0,0,1.213,2.927Z" transform="translate(-259.881 -45.593)" fill="#b7264b"/>
        <path id="Path_1318" data-name="Path 1318" d="M100.8,355.435l-.728.728a1.715,1.715,0,0,0,2.425,2.425l.728-.728a1.715,1.715,0,0,0-2.425-2.425Z" transform="translate(-83.557 -297.866)" fill="#b7264b"/>
      </g>
    </g>
  </g>
</svg>
