<svg xmlns="http://www.w3.org/2000/svg" xmlns:xlink="http://www.w3.org/1999/xlink" width="72" height="71.997" viewBox="0 0 72 71.997">
  <defs>
    <clipPath id="clip-path">
      <rect width="72" height="71.997" fill="none"/>
    </clipPath>
  </defs>
  <g id="customer_service" clip-path="url(#clip-path)">
    <g id="Group_30" data-name="Group 30">
      <path id="Path_1062" data-name="Path 1062" d="M37.808,307.1H25.979a14.467,14.467,0,0,0-14.5,14.215c-.44,2.372-1.037,6.518.44,8,3.991,3.849,13.022,5.325,19.967,5.325,7.1,0,15.976-1.477,19.967-5.325,1.477-1.477.895-5.624.44-8A14.529,14.529,0,0,0,37.808,307.1ZM49.95,327.081c-2.812,2.812-9.77,4.587-17.893,4.587s-15.238-1.775-17.893-4.445c-.3-.6-1.718-16.658,11.83-17.325,3.082-.156,11.986,0,11.986,0,13.278.014,12.27,16.743,11.972,17.183Z" transform="translate(-10.979 -262.639)" fill="#969696"/>
      <path id="Path_1063" data-name="Path 1063" d="M86.588,146.9a11.7,11.7,0,0,0,0-23.4A11.811,11.811,0,0,0,74.9,135.2,11.628,11.628,0,0,0,86.588,146.9Zm0-20.435a8.735,8.735,0,1,1-8.876,8.734A8.869,8.869,0,0,1,86.588,126.468Z" transform="translate(-65.823 -106.69)" fill="#969696"/>
      <path id="Path_1064" data-name="Path 1064" d="M253.1,11V32.472h4.587V42.981L268.2,32.472H288.3V11Zm32.393,18.66H267.145l-6.5,6.518V29.66h-4.587V13.968h29.439Z" transform="translate(-216.305 -11)" fill="#969696"/>
      <path id="Path_1065" data-name="Path 1065" d="M354.58,44.1a.8.8,0,0,1,.738-.44,1.6,1.6,0,0,1,.6.142,2.223,2.223,0,0,1,.3.895,1.255,1.255,0,0,1-.3.895l-1.179,1.335A11.879,11.879,0,0,0,354,47.96a2.986,2.986,0,0,0-.142,1.179v1.335h2.67V49.3a1.13,1.13,0,0,1,.142-.738l.6-.6.895-.895c0-.142.142-.3.3-.44s.3-.3.3-.44c.142,0,.142-.142.3-.44.142-.142.142-.6.142-1.037a3.036,3.036,0,0,0-1.037-2.514,4.253,4.253,0,0,0-2.812-.895,3.91,3.91,0,0,0-2.812,1.037,4.291,4.291,0,0,0-1.335,2.812h2.954A5.018,5.018,0,0,1,354.58,44.1Z" transform="translate(-300.993 -36.997)" fill="#969696"/>
      <path id="Path_1066" data-name="Path 1066" d="M370.419,110a1.642,1.642,0,0,0-1.179.44,1.665,1.665,0,0,0-.44,1.179,1.642,1.642,0,0,0,.44,1.179,1.453,1.453,0,0,0,1.179.44,1.642,1.642,0,0,0,1.179-.44,1.665,1.665,0,0,0,.44-1.179,1.642,1.642,0,0,0-.44-1.179,1.73,1.73,0,0,0-1.179-.44Z" transform="translate(-316.139 -95.43)" fill="#969696"/>
    </g>
  </g>
</svg>
