<svg xmlns="http://www.w3.org/2000/svg" xmlns:xlink="http://www.w3.org/1999/xlink" width="85" height="72.124" viewBox="0 0 85 72.124">
  <defs>
    <clipPath id="clip-path">
      <rect width="85" height="72.124" fill="none"/>
    </clipPath>
  </defs>
  <g id="diamond" clip-path="url(#clip-path)">
    <path id="Path_1829" data-name="Path 1829" d="M42.5,74.621a1.282,1.282,0,0,1-.984-.458L.3,25.223a1.286,1.286,0,0,1-.046-1.6L15.712,3.015a1.287,1.287,0,0,1,1.03-.515H68.257a1.287,1.287,0,0,1,1.03.515L84.742,23.621a1.286,1.286,0,0,1-.046,1.6L43.484,74.163A1.282,1.282,0,0,1,42.5,74.621ZM2.934,24.348,42.5,71.335,82.066,24.348,67.614,5.076H17.386Z" transform="translate(0 -2.498)" fill="#969696"/>
    <path id="Path_1830" data-name="Path 1830" d="M83.712,13.076H1.288a1.288,1.288,0,1,1,0-2.576H83.712a1.288,1.288,0,1,1,0,2.576Z" transform="translate(0 10.108)" fill="#969696"/>
    <path id="Path_1831" data-name="Path 1831" d="M17.287,62.015a1.246,1.246,0,0,1-.386-.059,1.284,1.284,0,0,1-.84-1.615L31.516,11.4a1.287,1.287,0,1,1,2.455.775L18.516,61.116A1.289,1.289,0,0,1,17.287,62.015Z" transform="translate(25.213 10.108)" fill="#969696"/>
    <path id="Path_1832" data-name="Path 1832" d="M26.743,62.017a1.288,1.288,0,0,1-1.229-.9L10.06,12.176a1.287,1.287,0,0,1,2.455-.775L27.969,60.34a1.288,1.288,0,0,1-.84,1.615A1.177,1.177,0,0,1,26.743,62.017Z" transform="translate(15.757 10.107)" fill="#969696"/>
    <path id="Path_1833" data-name="Path 1833" d="M17.592,25.681a1.289,1.289,0,0,1-1.154-.711L6.135,4.364A1.288,1.288,0,0,1,8.44,3.213l10.3,20.606a1.285,1.285,0,0,1-1.151,1.862Z" transform="translate(9.454 -2.497)" fill="#969696"/>
    <path id="Path_1834" data-name="Path 1834" d="M11.287,25.681a1.288,1.288,0,0,1-1.028-2.061L25.713,3.015A1.288,1.288,0,0,1,27.774,4.56L12.319,25.166A1.291,1.291,0,0,1,11.287,25.681Z" transform="translate(15.759 -2.497)" fill="#969696"/>
    <path id="Path_1835" data-name="Path 1835" d="M32.743,25.683a1.283,1.283,0,0,1-1.03-.515L16.258,4.562a1.288,1.288,0,0,1,2.061-1.545L33.773,23.623a1.287,1.287,0,0,1-.258,1.8A1.273,1.273,0,0,1,32.743,25.683Z" transform="translate(25.212 -2.499)" fill="#969696"/>
    <path id="Path_1836" data-name="Path 1836" d="M23.287,25.683a1.29,1.29,0,0,1-1.151-1.865l10.3-20.606a1.288,1.288,0,1,1,2.305,1.151l-10.3,20.606A1.292,1.292,0,0,1,23.287,25.683Z" transform="translate(34.667 -2.499)" fill="#969696"/>
  </g>
</svg>
