<svg xmlns="http://www.w3.org/2000/svg" xmlns:xlink="http://www.w3.org/1999/xlink" width="77" height="49.274" viewBox="0 0 77 49.274">
  <defs>
    <clipPath id="clip-path">
      <rect width="77" height="49.274" fill="none"/>
    </clipPath>
  </defs>
  <g id="driving_license" clip-path="url(#clip-path)">
    <g id="Group_243" data-name="Group 243">
      <path id="Path_1814" data-name="Path 1814" d="M73.459,92H62.681a1.13,1.13,0,0,0,0,2.26H73.459a1.282,1.282,0,0,1,1.281,1.281v42.192a1.282,1.282,0,0,1-1.281,1.281H3.541a1.282,1.282,0,0,1-1.281-1.281V95.541A1.282,1.282,0,0,1,3.541,94.26H57.176a1.13,1.13,0,1,0,0-2.26H3.541A3.545,3.545,0,0,0,0,95.541v42.192a3.545,3.545,0,0,0,3.541,3.541H73.459A3.545,3.545,0,0,0,77,137.733V95.541A3.545,3.545,0,0,0,73.459,92Z" transform="translate(0 -92)" fill="#575757"/>
      <path id="Path_1815" data-name="Path 1815" d="M71.959,149.13a1.13,1.13,0,0,0-1.13-1.13H49.13A1.13,1.13,0,0,0,48,149.13v24.11a1.13,1.13,0,0,0,1.13,1.13h21.7a1.13,1.13,0,0,0,1.13-1.13ZM55.082,172.11v-3.692a1.282,1.282,0,0,1,1.281-1.281H63.6a1.282,1.282,0,0,1,1.281,1.281v3.692Zm14.616,0H67.137v-3.692a3.545,3.545,0,0,0-3.541-3.541H56.363a3.545,3.545,0,0,0-3.541,3.541v3.692H50.26V150.26H69.7Z" transform="translate(-40.767 -139.562)" fill="#575757"/>
      <path id="Path_1816" data-name="Path 1816" d="M93.952,191.9A5.952,5.952,0,1,0,88,185.952,5.959,5.959,0,0,0,93.952,191.9Zm0-9.644a3.692,3.692,0,1,1-3.692,3.692A3.7,3.7,0,0,1,93.952,182.26Z" transform="translate(-74.74 -166.74)" fill="#575757"/>
      <path id="Path_1817" data-name="Path 1817" d="M241.13,148a1.13,1.13,0,0,0,0,2.26h20.493a1.13,1.13,0,0,0,0-2.26Z" transform="translate(-203.836 -139.562)" fill="#575757"/>
      <path id="Path_1818" data-name="Path 1818" d="M241.13,190.26h9.644a1.13,1.13,0,0,0,0-2.26H241.13a1.13,1.13,0,0,0,0,2.26Z" transform="translate(-203.836 -173.534)" fill="#575757"/>
      <path id="Path_1819" data-name="Path 1819" d="M355.137,189.13a1.13,1.13,0,0,0-1.13-1.13H337.13a1.13,1.13,0,1,0,0,2.26h16.877A1.13,1.13,0,0,0,355.137,189.13Z" transform="translate(-285.37 -173.534)" fill="#575757"/>
      <path id="Path_1820" data-name="Path 1820" d="M267.651,228H241.13a1.13,1.13,0,1,0,0,2.26h26.521a1.13,1.13,0,0,0,0-2.26Z" transform="translate(-203.836 -207.507)" fill="#575757"/>
      <path id="Path_1821" data-name="Path 1821" d="M256.726,269.13A1.13,1.13,0,0,0,255.6,268H241.13a1.13,1.13,0,1,0,0,2.26H255.6A1.13,1.13,0,0,0,256.726,269.13Z" transform="translate(-203.836 -241.479)" fill="#575757"/>
      <path id="Path_1822" data-name="Path 1822" d="M376.363,268H369.13a1.13,1.13,0,0,0,0,2.26h7.233a1.13,1.13,0,1,0,0-2.26Z" transform="translate(-312.548 -241.479)" fill="#575757"/>
      <path id="Path_1823" data-name="Path 1823" d="M241.13,308a1.13,1.13,0,1,0,0,2.26h8.438a1.13,1.13,0,1,0,0-2.26Z" transform="translate(-203.836 -275.452)" fill="#575757"/>
      <path id="Path_1824" data-name="Path 1824" d="M329.13,310.26h13.26a1.13,1.13,0,1,0,0-2.26H329.13a1.13,1.13,0,1,0,0,2.26Z" transform="translate(-278.575 -275.452)" fill="#575757"/>
      <path id="Path_1825" data-name="Path 1825" d="M49.13,348a1.13,1.13,0,0,0,0,2.26h6.027a1.13,1.13,0,0,0,0-2.26Z" transform="translate(-40.767 -309.425)" fill="#575757"/>
      <path id="Path_1826" data-name="Path 1826" d="M131.979,348H121.13a1.13,1.13,0,1,0,0,2.26h10.849a1.13,1.13,0,0,0,0-2.26Z" transform="translate(-101.918 -309.425)" fill="#575757"/>
    </g>
  </g>
</svg>
