<svg xmlns="http://www.w3.org/2000/svg" xmlns:xlink="http://www.w3.org/1999/xlink" width="55.995" height="66.776" viewBox="0 0 55.995 66.776">
  <defs>
    <clipPath id="clip-path">
      <rect width="55.995" height="66.776" fill="none"/>
    </clipPath>
  </defs>
  <g id="dustbin_red" clip-path="url(#clip-path)">
    <g id="Group_201" data-name="Group 201">
      <g id="Group_200" data-name="Group 200" transform="translate(0 0)">
        <path id="Path_1319" data-name="Path 1319" d="M160.965,211.679a1.043,1.043,0,1,1,2.087,0v40.027a6.457,6.457,0,0,1-6.434,6.434H124.273a6.457,6.457,0,0,1-6.434-6.434V211.679a1.043,1.043,0,1,1,2.087,0v40.027a4.368,4.368,0,0,0,4.345,4.347h32.345a4.371,4.371,0,0,0,4.345-4.345V211.679Z" transform="translate(-112.448 -191.364)" fill="#b7264b"/>
        <path id="Path_1320" data-name="Path 1320" d="M259.145,251.687a1.043,1.043,0,0,1-2.087,0V214.625a1.043,1.043,0,0,1,2.087,0Z" transform="translate(-238.929 -194.04)" fill="#b7264b"/>
        <path id="Path_1321" data-name="Path 1321" d="M355.6,251.687a1.043,1.043,0,0,1-2.087,0V214.625a1.043,1.043,0,1,1,2.087,0Z" transform="translate(-326.562 -194.04)" fill="#b7264b"/>
        <path id="Path_1322" data-name="Path 1322" d="M452.084,251.687a1.043,1.043,0,1,1-2.087,0V214.625a1.043,1.043,0,1,1,2.087,0v37.062Z" transform="translate(-414.215 -194.04)" fill="#b7264b"/>
        <path id="Path_1323" data-name="Path 1323" d="M252.494,6.434a1.043,1.043,0,1,1-2.087,0A6.45,6.45,0,0,1,256.841,0h8.086a6.457,6.457,0,0,1,6.434,6.434,1.043,1.043,0,1,1-2.087,0,4.368,4.368,0,0,0-4.345-4.347h-8.086a4.368,4.368,0,0,0-4.35,4.347Z" transform="translate(-232.887 0)" fill="#b7264b"/>
        <path id="Path_1324" data-name="Path 1324" d="M62.658,103.108h48.517a3.724,3.724,0,0,1,2.637,1.1l0,0a3.724,3.724,0,0,1,1.1,2.637v2.7a1.044,1.044,0,0,1-1.043,1.043H59.962a1.044,1.044,0,0,1-1.043-1.043v-2.7a3.728,3.728,0,0,1,1.1-2.637l0,0a3.728,3.728,0,0,1,2.637-1.1Zm48.517,2.087H62.658a1.641,1.641,0,0,0-1.165.483l0,0a1.637,1.637,0,0,0-.483,1.165V108.5h51.819v-1.652a1.641,1.641,0,0,0-.482-1.165l0,0A1.635,1.635,0,0,0,111.175,105.195Z" transform="translate(-58.919 -93.674)" fill="#b7264b"/>
      </g>
    </g>
  </g>
</svg>
