<svg xmlns="http://www.w3.org/2000/svg" xmlns:xlink="http://www.w3.org/1999/xlink" width="67.22" height="80.162" viewBox="0 0 67.22 80.162">
  <defs>
    <clipPath id="clip-path">
      <rect width="67.219" height="80.162" fill="none"/>
    </clipPath>
  </defs>
  <g id="dustbin" clip-path="url(#clip-path)">
    <g id="Group_201" data-name="Group 201">
      <g id="Group_200" data-name="Group 200" transform="translate(0 0)">
        <path id="Path_1319" data-name="Path 1319" d="M169.61,211.889a1.253,1.253,0,1,1,2.505,0v48.05a7.751,7.751,0,0,1-7.724,7.724H125.563a7.751,7.751,0,0,1-7.724-7.724v-48.05a1.253,1.253,0,1,1,2.505,0v48.05a5.243,5.243,0,0,0,5.216,5.219h38.829a5.248,5.248,0,0,0,5.216-5.216V211.889Z" transform="translate(-111.367 -187.501)" fill="#c4c4c4"/>
        <path id="Path_1320" data-name="Path 1320" d="M259.563,259.326a1.253,1.253,0,0,1-2.505,0V214.835a1.253,1.253,0,0,1,2.505,0Z" transform="translate(-235.295 -190.123)" fill="#c4c4c4"/>
        <path id="Path_1321" data-name="Path 1321" d="M356.021,259.326a1.253,1.253,0,0,1-2.505,0V214.835a1.253,1.253,0,1,1,2.505,0Z" transform="translate(-321.159 -190.123)" fill="#c4c4c4"/>
        <path id="Path_1322" data-name="Path 1322" d="M452.5,259.326a1.252,1.252,0,1,1-2.5,0V214.835a1.252,1.252,0,1,1,2.5,0v44.491Z" transform="translate(-407.043 -190.123)" fill="#c4c4c4"/>
        <path id="Path_1323" data-name="Path 1323" d="M252.912,7.724a1.253,1.253,0,1,1-2.505,0A7.742,7.742,0,0,1,258.131,0h9.707a7.751,7.751,0,0,1,7.724,7.724,1.252,1.252,0,1,1-2.5,0,5.244,5.244,0,0,0-5.216-5.219h-9.707a5.244,5.244,0,0,0-5.222,5.219Z" transform="translate(-229.375 0)" fill="#c4c4c4"/>
        <path id="Path_1324" data-name="Path 1324" d="M63.407,103.108H121.65a4.471,4.471,0,0,1,3.165,1.318l.005.005a4.47,4.47,0,0,1,1.318,3.165v3.236a1.253,1.253,0,0,1-1.253,1.252H60.172a1.253,1.253,0,0,1-1.253-1.252V107.6a4.475,4.475,0,0,1,1.318-3.165l.005-.005a4.475,4.475,0,0,1,3.165-1.318Zm58.243,2.505H63.407a1.97,1.97,0,0,0-1.4.579L62,106.2a1.965,1.965,0,0,0-.579,1.4v1.983h62.207V107.6a1.971,1.971,0,0,0-.579-1.4l-.005-.005A1.963,1.963,0,0,0,121.65,105.613Z" transform="translate(-58.919 -91.783)" fill="#c4c4c4"/>
      </g>
    </g>
  </g>
</svg>
