<svg xmlns="http://www.w3.org/2000/svg" xmlns:xlink="http://www.w3.org/1999/xlink" width="60" height="60" viewBox="0 0 60 60">
  <defs>
    <clipPath id="clip-path">
      <rect width="60" height="60" fill="none"/>
    </clipPath>
  </defs>
  <g id="error" clip-path="url(#clip-path)">
    <path id="Path_1793" data-name="Path 1793" d="M30,0A30,30,0,1,0,60,30,30.034,30.034,0,0,0,30,0Zm0,57.692A27.692,27.692,0,1,1,57.692,30,27.725,27.725,0,0,1,30,57.692Z" fill="#939393"/>
    <path id="Path_1794" data-name="Path 1794" d="M38.739,16.338a1.153,1.153,0,0,0-1.632,0l-9.569,9.569L17.97,16.338a1.154,1.154,0,0,0-1.632,1.632l9.569,9.569-9.569,9.569a1.154,1.154,0,1,0,1.632,1.632l9.569-9.569,9.569,9.569a1.154,1.154,0,0,0,1.632-1.632L29.17,27.538l9.569-9.569A1.153,1.153,0,0,0,38.739,16.338Z" transform="translate(2.462 2.462)" fill="#939393"/>
  </g>
</svg>
