<svg xmlns="http://www.w3.org/2000/svg" xmlns:xlink="http://www.w3.org/1999/xlink" width="56.084" height="56.086" viewBox="0 0 56.084 56.086">
  <defs>
    <clipPath id="clip-path">
      <rect width="56.085" height="56.086" fill="none"/>
    </clipPath>
  </defs>
  <g id="filter" clip-path="url(#clip-path)">
    <path id="filter-2" data-name="filter" d="M40.39,33.246V51.3a1.558,1.558,0,0,1-.979,1.446L23.831,58.973a1.558,1.558,0,0,1-2.137-1.446V33.246L3.456,15.007A1.558,1.558,0,0,1,3,13.905V4.558A1.558,1.558,0,0,1,4.558,3H57.527a1.558,1.558,0,0,1,1.558,1.558v9.347a1.558,1.558,0,0,1-.456,1.1Zm-3.116.913H24.811V55.226L37.274,50.24ZM6.116,6.116V13.26L23.9,31.042H38.187L55.969,13.26V6.116Z" transform="translate(-3 -3)" fill="#767676"/>
  </g>
</svg>
