<svg xmlns="http://www.w3.org/2000/svg" xmlns:xlink="http://www.w3.org/1999/xlink" width="72" height="64" viewBox="0 0 72 64">
  <defs>
    <clipPath id="clip-path">
      <rect width="72" height="64" fill="none"/>
    </clipPath>
  </defs>
  <g id="heart" clip-path="url(#clip-path)">
    <path id="heart-2" data-name="heart" d="M71,28C71,15.361,64.13,8,53,8c-5.934,0-9.9,2.264-12.211,6.894a2,2,0,0,1-3.578,0C34.9,10.264,30.934,8,25,8,13.87,8,7,15.361,7,28c0,9.6,10.595,21.6,32,35.614C60.405,49.6,71,37.6,71,28ZM53,4c13.4,0,22,9.211,22,24,0,11.576-11.714,24.667-34.913,39.679a2,2,0,0,1-2.173,0C14.714,52.667,3,39.576,3,28,3,13.211,11.6,4,25,4c6.111,0,10.839,2.094,14,6.223C42.161,6.094,46.889,4,53,4Z" transform="translate(-3 -4)" fill="#aaa"/>
  </g>
</svg>
