<svg xmlns="http://www.w3.org/2000/svg" xmlns:xlink="http://www.w3.org/1999/xlink" width="72" height="72" viewBox="0 0 72 72">
  <defs>
    <clipPath id="clip-path">
      <rect width="72" height="72" fill="none"/>
    </clipPath>
  </defs>
  <g id="home_gray" clip-path="url(#clip-path)">
    <path id="home" d="M71,33.944V65A10,10,0,0,1,61,75H49a2,2,0,0,1-2-2V49a2,2,0,0,0-2-2H33a2,2,0,0,0-2,2V73a2,2,0,0,1-2,2H17A10,10,0,0,1,7,65V33.944l-.729.6a2,2,0,1,1-2.543-3.088l34-28a2,2,0,0,1,2.543,0l34,28a2,2,0,1,1-2.543,3.088Zm-3.973-3.272L39,7.591,10.973,30.672A2.014,2.014,0,0,1,11,31V65a6,6,0,0,0,6,6H27V49a6,6,0,0,1,6-6H45a6,6,0,0,1,6,6V71H61a6,6,0,0,0,6-6V31a2.014,2.014,0,0,1,.027-.328Z" transform="translate(-3 -3)" fill="#969696"/>
  </g>
</svg>
