<svg xmlns="http://www.w3.org/2000/svg" xmlns:xlink="http://www.w3.org/1999/xlink" width="80.669" height="48.184" viewBox="0 0 80.669 48.184">
  <defs>
    <clipPath id="clip-path">
      <rect width="80.669" height="48.184" fill="none"/>
    </clipPath>
  </defs>
  <g id="license_plate" transform="translate(0 -0.001)" clip-path="url(#clip-path)">
    <g id="Group_245" data-name="Group 245">
      <g id="Group_244" data-name="Group 244">
        <path id="Path_1827" data-name="Path 1827" d="M59.345,148.8H9.3a6.836,6.836,0,0,1-6.829-6.829v-29.58A6.837,6.837,0,0,1,9.3,105.564h7.63a1.237,1.237,0,1,0,0-2.473H9.3a9.312,9.312,0,0,0-9.3,9.3v29.58a9.312,9.312,0,0,0,9.3,9.3H59.345a1.237,1.237,0,0,0,0-2.473Z" transform="translate(0 -103.091)" fill="#797979"/>
      </g>
    </g>
    <g id="Group_247" data-name="Group 247" transform="translate(20.641)">
      <g id="Group_246" data-name="Group 246">
        <path id="Path_1828" data-name="Path 1828" d="M181.733,103.091h-49.49a1.237,1.237,0,1,0,0,2.473h49.49a6.837,6.837,0,0,1,6.829,6.829v29.58a6.836,6.836,0,0,1-6.829,6.829h-7.076a1.237,1.237,0,1,0,0,2.473h7.076a9.312,9.312,0,0,0,9.3-9.3v-29.58A9.312,9.312,0,0,0,181.733,103.091Z" transform="translate(-131.007 -103.091)" fill="#797979"/>
      </g>
    </g>
    <g id="Group_249" data-name="Group 249" transform="translate(5.77 5.77)">
      <g id="Group_248" data-name="Group 248">
        <path id="Path_1829" data-name="Path 1829" d="M102.221,139.715H40.155a3.536,3.536,0,0,0-3.531,3.531v29.58a3.535,3.535,0,0,0,3.531,3.531h62.065a3.535,3.535,0,0,0,3.531-3.531v-29.58A3.535,3.535,0,0,0,102.221,139.715Zm1.058,33.111a1.06,1.06,0,0,1-1.058,1.058H40.155a1.06,1.06,0,0,1-1.058-1.058v-4.712h64.182v4.712Zm0-7.185H39.1v-15.21h64.182v15.21Zm0-17.683H39.1v-4.712a1.06,1.06,0,0,1,1.058-1.058h62.065a1.06,1.06,0,0,1,1.058,1.058Z" transform="translate(-36.624 -139.715)" fill="#797979"/>
      </g>
    </g>
    <g id="Group_251" data-name="Group 251" transform="translate(10.855 17.996)">
      <g id="Group_250" data-name="Group 250">
        <path id="Path_1830" data-name="Path 1830" d="M73.849,217.31h-2.92L68.9,230H70.73l.345-2.3h2.448l.345,2.3H75.88Zm-2.521,8.669.961-6.42.961,6.42Z" transform="translate(-68.898 -217.31)" fill="#797979"/>
      </g>
    </g>
    <g id="Group_253" data-name="Group 253" transform="translate(19.451 17.995)">
      <g id="Group_252" data-name="Group 252" transform="translate(0 0)">
        <path id="Path_1831" data-name="Path 1831" d="M128.136,223.237a2.493,2.493,0,0,0,1.288-2.557v-.453c0-1.959-.889-2.92-2.956-2.92h-3.01V230h3.137a2.7,2.7,0,0,0,3.029-3.01v-1.034C129.623,224.616,129.206,223.654,128.136,223.237Zm-2.684-4.117h.961c.707,0,1.016.4,1.016,1.306v.707c0,1.016-.453,1.342-1.2,1.342h-.78Zm2.176,7.817c0,.943-.363,1.251-1.034,1.251h-1.143v-3.9h.889c.907,0,1.288.363,1.288,1.542v1.106Z" transform="translate(-123.457 -217.307)" fill="#797979"/>
      </g>
    </g>
    <g id="Group_255" data-name="Group 255" transform="translate(27.34 17.851)">
      <g id="Group_254" data-name="Group 254">
        <path id="Path_1832" data-name="Path 1832" d="M179.475,220.813V219.58c0-2.031-1.016-3.192-2.974-3.192s-2.974,1.161-2.974,3.192v6.6c0,2.031,1.015,3.192,2.974,3.192s2.974-1.161,2.974-3.192v-1.686h-1.886v1.813c0,.907-.4,1.233-1.034,1.233s-1.034-.326-1.034-1.233v-6.855c0-.907.4-1.251,1.034-1.251s1.034.345,1.034,1.251v1.36Z" transform="translate(-173.527 -216.388)" fill="#797979"/>
      </g>
    </g>
    <g id="Group_257" data-name="Group 257" transform="translate(38.602 23.436)">
      <g id="Group_256" data-name="Group 256" transform="translate(0 0)">
        <rect id="Rectangle_704" data-name="Rectangle 704" width="3.627" height="1.813" fill="#797979"/>
      </g>
    </g>
    <g id="Group_259" data-name="Group 259" transform="translate(49.011 17.996)">
      <g id="Group_258" data-name="Group 258" transform="translate(0 0)">
        <path id="Path_1833" data-name="Path 1833" d="M313.267,217.309a1.976,1.976,0,0,1-2.195,1.6v1.415h1.542V230h1.995V217.309Z" transform="translate(-311.072 -217.309)" fill="#797979"/>
      </g>
    </g>
    <g id="Group_261" data-name="Group 261" transform="translate(55.649 17.851)">
      <g id="Group_260" data-name="Group 260">
        <path id="Path_1834" data-name="Path 1834" d="M355.2,227.414a1.374,1.374,0,0,1-.018-.272c0-2.086,3.972-3.573,3.972-7.562,0-2.031-1.016-3.192-2.974-3.192s-2.974,1.161-2.974,3.192v1.233h1.886v-1.36c0-.907.4-1.251,1.034-1.251s1.034.308,1.034,1.451c0,3.663-3.953,4.28-3.953,8.016v1.56h5.767v-1.813H355.2Z" transform="translate(-353.202 -216.388)" fill="#797979"/>
      </g>
    </g>
    <g id="Group_263" data-name="Group 263" transform="translate(63.411 17.851)">
      <g id="Group_262" data-name="Group 262" transform="translate(0 0)">
        <path id="Path_1835" data-name="Path 1835" d="M408.413,219.906v-.326c0-2.031-1.016-3.192-2.974-3.192s-2.974,1.161-2.974,3.192v.689h1.886v-.816c0-.907.4-1.251,1.034-1.251s1.034.308,1.034,1.451v.707c0,1.016-.453,1.342-1.2,1.342h-.78v1.813h.671c.907,0,1.306.436,1.306,1.614v1c0,1.124-.4,1.433-1.034,1.433s-1.034-.345-1.034-1.251v-1.179h-1.886v1.052c0,2.031,1.016,3.192,2.974,3.192s2.974-1.161,2.974-3.192v-1a2.59,2.59,0,0,0-1.4-2.666C407.978,222.119,408.413,221.266,408.413,219.906Z" transform="translate(-402.465 -216.388)" fill="#797979"/>
      </g>
    </g>
    <g id="Group_265" data-name="Group 265" transform="translate(18.96 9.795)">
      <g id="Group_264" data-name="Group 264">
        <circle id="Ellipse_123" data-name="Ellipse 123" cx="1.355" cy="1.355" r="1.355" fill="#797979"/>
      </g>
    </g>
    <g id="Group_267" data-name="Group 267" transform="translate(18.96 35.706)">
      <g id="Group_266" data-name="Group 266" transform="translate(0 0)">
        <circle id="Ellipse_124" data-name="Ellipse 124" cx="1.355" cy="1.355" r="1.355" fill="#797979"/>
      </g>
    </g>
    <g id="Group_269" data-name="Group 269" transform="translate(59 9.795)">
      <g id="Group_268" data-name="Group 268">
        <circle id="Ellipse_125" data-name="Ellipse 125" cx="1.355" cy="1.355" r="1.355" fill="#797979"/>
      </g>
    </g>
    <g id="Group_271" data-name="Group 271" transform="translate(59 35.706)">
      <g id="Group_270" data-name="Group 270" transform="translate(0 0)">
        <circle id="Ellipse_126" data-name="Ellipse 126" cx="1.355" cy="1.355" r="1.355" fill="#797979"/>
      </g>
    </g>
  </g>
</svg>
