<svg xmlns="http://www.w3.org/2000/svg" xmlns:xlink="http://www.w3.org/1999/xlink" width="68.773" height="68.732" viewBox="0 0 68.773 68.732">
  <defs>
    <clipPath id="clip-path">
      <rect width="68.773" height="68.732" fill="none"/>
    </clipPath>
  </defs>
  <g id="location" clip-path="url(#clip-path)">
    <path id="Path_1839" data-name="Path 1839" d="M66.064,20.987a1.007,1.007,0,0,0-1.855.786,32.168,32.168,0,0,1,2.55,12.614,32.5,32.5,0,0,1-.877,7.511l-4.7-4.7a2.338,2.338,0,0,0-1.263-.654L53.1,35.367a.336.336,0,0,1-.18-.093l-.958-.958a.339.339,0,0,1-.1-.238v-9.2a.339.339,0,0,1,.1-.238l1.405-1.405a2.335,2.335,0,0,0,.688-1.662V8.677a32.6,32.6,0,0,1,8.124,9.107,1.007,1.007,0,1,0,1.728-1.035A34.368,34.368,0,0,0,34.387,0a34.4,34.4,0,0,0-30.5,50.283A34.7,34.7,0,0,0,14.248,62.26a1.008,1.008,0,0,0,1.182-1.632A32.324,32.324,0,0,1,2.015,34.387,32.139,32.139,0,0,1,10.4,12.643l2.019,5.6a2.475,2.475,0,0,0,2.322,1.631h9.99a.451.451,0,0,1,.322.133l.7.7a11.622,11.622,0,0,0-5.47,9.855c0,4.967,6.875,17.5,9.83,22.654a2.064,2.064,0,0,0,3.581,0c.8-1.392,1.882-3.322,3.038-5.495h9.595a.453.453,0,0,1,.321.133l6.481,6.481a.453.453,0,0,1,.133.322v6.043a32.171,32.171,0,0,1-17.267,6.027,1.007,1.007,0,0,0,.048,2.014h.05A34.406,34.406,0,0,0,66.064,20.987ZM31.945,52.206a.048.048,0,0,1-.084,0C29.617,48.292,22.3,35.163,22.3,30.554a9.606,9.606,0,1,1,19.211,0C41.508,35.163,34.188,48.292,31.945,52.206ZM57.8,56.741a32.9,32.9,0,0,1-2.524,2.376V54.649a2.454,2.454,0,0,0-.724-1.746l-6.481-6.481a2.453,2.453,0,0,0-1.746-.723H37.787c2.841-5.511,5.736-11.92,5.736-15.144A11.621,11.621,0,0,0,27.644,19.742l-1.163-1.163a2.454,2.454,0,0,0-1.746-.723h-9.99a.455.455,0,0,1-.427-.3l-2.351-6.518A32.382,32.382,0,0,1,50.59,6.357c.493.285.975.587,1.451.9V21.569a.334.334,0,0,1-.1.238l-1.4,1.405a2.335,2.335,0,0,0-.688,1.662v9.2a2.335,2.335,0,0,0,.688,1.662l.957.958a2.339,2.339,0,0,0,1.263.654l6.814,1.173a.333.333,0,0,1,.18.094l5.512,5.512A32.257,32.257,0,0,1,57.8,56.741Zm0,0" fill="#b7264b"/>
    <path id="Path_1840" data-name="Path 1840" d="M145.472,471.535a32.039,32.039,0,0,1-12.606-3.708,1.007,1.007,0,0,0-.951,1.776,34.032,34.032,0,0,0,13.394,3.939c.028,0,.056,0,.083,0a1.007,1.007,0,0,0,.08-2.011Zm0,0" transform="translate(-113.735 -404.884)" fill="#b7264b"/>
    <path id="Path_1841" data-name="Path 1841" d="M199.313,174.848a5.926,5.926,0,1,0,5.926,5.926A5.933,5.933,0,0,0,199.313,174.848Zm0,9.839a3.912,3.912,0,1,1,3.912-3.912A3.916,3.916,0,0,1,199.313,184.686Zm0,0" transform="translate(-167.41 -151.362)" fill="#b7264b"/>
    <path id="Path_1842" data-name="Path 1842" d="M96.953,334.269h2.416a1.007,1.007,0,0,0,0-2.015H96.953a1.007,1.007,0,0,0,0,2.015Zm0,0" transform="translate(-83.058 -287.625)" fill="#b7264b"/>
    <path id="Path_1843" data-name="Path 1843" d="M96.953,362.058h8.309a1.007,1.007,0,1,0,0-2.015H96.953a1.007,1.007,0,0,0,0,2.015Zm0,0" transform="translate(-83.058 -311.681)" fill="#b7264b"/>
    <path id="Path_1844" data-name="Path 1844" d="M96.953,383.144h8.309a1.007,1.007,0,0,0,0-2.015H96.953a1.007,1.007,0,0,0,0,2.015Zm0,0" transform="translate(-83.058 -329.935)" fill="#b7264b"/>
  </g>
</svg>
