<svg xmlns="http://www.w3.org/2000/svg" xmlns:xlink="http://www.w3.org/1999/xlink" width="76.001" height="75.11" viewBox="0 0 76.001 75.11">
  <defs>
    <clipPath id="clip-path">
      <rect width="76.001" height="75.11" fill="none"/>
    </clipPath>
  </defs>
  <g id="money" clip-path="url(#clip-path)">
    <g id="Group_232" data-name="Group 232" transform="translate(44.525 37.585)">
      <g id="Group_231" data-name="Group 231">
        <path id="Path_1808" data-name="Path 1808" d="M306.188,266.912a2.856,2.856,0,1,1,3.266-2.826,1.484,1.484,0,0,0,2.969,0,5.906,5.906,0,0,0-4.75-5.628v-.772a1.484,1.484,0,0,0-2.969,0v.772a5.906,5.906,0,0,0-4.75,5.628,6.034,6.034,0,0,0,6.234,5.8,2.856,2.856,0,1,1-3.266,2.827,1.484,1.484,0,1,0-2.969,0,5.906,5.906,0,0,0,4.75,5.628v.641a1.484,1.484,0,1,0,2.969,0v-.641a5.906,5.906,0,0,0,4.75-5.628A6.034,6.034,0,0,0,306.188,266.912Z" transform="translate(-299.954 -256.201)" fill="#969696"/>
      </g>
    </g>
    <g id="Group_234" data-name="Group 234" transform="translate(56.989 32.328)">
      <g id="Group_233" data-name="Group 233">
        <path id="Path_1809" data-name="Path 1809" d="M393.952,227.923a19.34,19.34,0,0,0-7.9-6.992,1.484,1.484,0,1,0-1.286,2.676,16.342,16.342,0,0,1,7.36,22.383,1.484,1.484,0,1,0,2.621,1.394,19.319,19.319,0,0,0-.795-19.462Z" transform="translate(-383.924 -220.785)" fill="#969696"/>
      </g>
    </g>
    <g id="Group_236" data-name="Group 236" transform="translate(51.508 30.579)">
      <g id="Group_235" data-name="Group 235">
        <path id="Path_1810" data-name="Path 1810" d="M348.584,209h-.1a1.484,1.484,0,1,0,0,2.969h.093a1.484,1.484,0,0,0,.007-2.969Z" transform="translate(-347 -209.001)" fill="#969696"/>
      </g>
    </g>
    <g id="Group_238" data-name="Group 238" transform="translate(31.469 40.036)">
      <g id="Group_237" data-name="Group 237">
        <path id="Path_1811" data-name="Path 1811" d="M224.234,297.277a16.342,16.342,0,0,1-7.36-22.383,1.484,1.484,0,0,0-2.621-1.394,19.306,19.306,0,0,0,8.695,26.454,1.484,1.484,0,1,0,1.286-2.676Z" transform="translate(-212.002 -272.711)" fill="#969696"/>
      </g>
    </g>
    <g id="Group_240" data-name="Group 240" transform="translate(46.963 66.204)">
      <g id="Group_239" data-name="Group 239">
        <path id="Path_1812" data-name="Path 1812" d="M317.955,449h-.086a1.484,1.484,0,0,0-.014,2.969h.1a1.484,1.484,0,0,0,0-2.969Z" transform="translate(-316.378 -448.999)" fill="#969696"/>
      </g>
    </g>
    <g id="Group_242" data-name="Group 242">
      <g id="Group_241" data-name="Group 241" transform="translate(0 0)">
        <path id="Path_1813" data-name="Path 1813" d="M57.507,28.556a6.814,6.814,0,0,0-.66-1.212h3.864a6.828,6.828,0,0,0,0-13.656H48.825A6.824,6.824,0,0,0,43.2,3H6.828a6.828,6.828,0,0,0,0,13.656H18.715a6.809,6.809,0,0,0,0,7.719H14.844A6.824,6.824,0,0,0,10.6,36.547a6.816,6.816,0,0,0,0,10.688,6.816,6.816,0,0,0,0,10.688,6.824,6.824,0,0,0,4.243,12.172H32.337A25.229,25.229,0,1,0,57.507,28.556Zm3.2-11.9a3.859,3.859,0,0,1,0,7.719H24.344a3.859,3.859,0,1,1,0-7.719ZM6.828,13.688a3.859,3.859,0,1,1,0-7.719H43.2a3.859,3.859,0,0,1,0,7.719Zm8.016,13.656H51.211a3.857,3.857,0,0,1,1.684.388c-.7-.059-1.412-.091-2.129-.091a25.156,25.156,0,0,0-17.857,7.422H14.844a3.859,3.859,0,0,1,0-7.719Zm0,10.688H30.373a25.163,25.163,0,0,0-3.815,7.719H14.844a3.859,3.859,0,1,1,0-7.719Zm0,10.688H25.876a25.255,25.255,0,0,0-.092,7.719H14.844a3.859,3.859,0,0,1,0-7.719Zm0,18.406a3.859,3.859,0,1,1,0-7.719H26.39a25.135,25.135,0,0,0,3.562,7.719Zm35.922,8.016A22.266,22.266,0,1,1,73.032,52.876,22.291,22.291,0,0,1,50.766,75.142Z" transform="translate(0 -3)" fill="#969696"/>
      </g>
    </g>
  </g>
</svg>
