<svg xmlns="http://www.w3.org/2000/svg" xmlns:xlink="http://www.w3.org/1999/xlink" width="72" height="36" viewBox="0 0 72 36">
  <defs>
    <clipPath id="clip-path">
      <rect width="72" height="36" fill="none"/>
    </clipPath>
  </defs>
  <g id="nav_drawer" clip-path="url(#clip-path)">
    <g id="Menu_1_">
      <path id="Path_1" data-name="Path 1" d="M2.25,100.583h67.5a2.172,2.172,0,1,0,0-4.34H2.25a2.172,2.172,0,1,0,0,4.34Z" transform="translate(0 -96.243)" fill="#fff"/>
      <path id="Path_2" data-name="Path 2" d="M69.75,180.455H2.25a2.172,2.172,0,1,0,0,4.34h67.5a2.172,2.172,0,1,0,0-4.34Z" transform="translate(0 -164.625)" fill="#fff"/>
      <path id="Path_3" data-name="Path 3" d="M165.877,264.667h-43.4a2.17,2.17,0,1,0,0,4.34h43.4a2.17,2.17,0,0,0,0-4.34Z" transform="translate(-96.047 -233.007)" fill="#fff"/>
    </g>
  </g>
</svg>
