<svg xmlns="http://www.w3.org/2000/svg" xmlns:xlink="http://www.w3.org/1999/xlink" width="72" height="72" viewBox="0 0 72 72">
  <defs>
    <clipPath id="clip-path">
      <rect width="72" height="72" fill="none"/>
    </clipPath>
  </defs>
  <g id="note" clip-path="url(#clip-path)">
    <path id="Path_1837" data-name="Path 1837" d="M70.535,0H1.465A1.465,1.465,0,0,0,0,1.465v69.07A1.465,1.465,0,0,0,1.465,72h58.71a1.465,1.465,0,1,0,0-2.93H2.93V2.93H69.07v67.6a1.465,1.465,0,1,0,2.93,0V1.465A1.465,1.465,0,0,0,70.535,0Z" fill="#969696"/>
    <path id="Path_1838" data-name="Path 1838" d="M48.432,62.421a5.617,5.617,0,1,0,5.617,5.617A5.623,5.623,0,0,0,48.432,62.421Zm0,8.3a2.686,2.686,0,1,1,2.686-2.686A2.689,2.689,0,0,1,48.432,70.724Z" transform="translate(-32.36 -47.178)" fill="#969696"/>
    <path id="Path_1839" data-name="Path 1839" d="M136.468,79.421H102.28a1.465,1.465,0,1,0,0,2.93h34.188a1.465,1.465,0,1,0,0-2.93Z" transform="translate(-76.196 -60.026)" fill="#969696"/>
    <path id="Path_1840" data-name="Path 1840" d="M48.432,124.421a1.465,1.465,0,1,0,0,2.93,2.686,2.686,0,1,1-2.686,2.686,1.465,1.465,0,1,0-2.93,0,5.617,5.617,0,1,0,5.617-5.617Z" transform="translate(-32.36 -94.038)" fill="#969696"/>
    <path id="Path_1841" data-name="Path 1841" d="M136.468,141.421H102.28a1.465,1.465,0,0,0,0,2.93h34.188a1.465,1.465,0,1,0,0-2.93Z" transform="translate(-76.196 -106.886)" fill="#969696"/>
    <path id="Path_1842" data-name="Path 1842" d="M48.432,186.421a5.617,5.617,0,1,0,5.617,5.617A5.623,5.623,0,0,0,48.432,186.421Zm0,8.3a2.686,2.686,0,1,1,2.686-2.686A2.689,2.689,0,0,1,48.432,194.724Z" transform="translate(-32.36 -140.897)" fill="#969696"/>
    <path id="Path_1843" data-name="Path 1843" d="M136.468,203.421H102.28a1.465,1.465,0,1,0,0,2.93h34.188a1.465,1.465,0,1,0,0-2.93Z" transform="translate(-76.196 -153.746)" fill="#969696"/>
  </g>
</svg>
