<svg xmlns="http://www.w3.org/2000/svg" xmlns:xlink="http://www.w3.org/1999/xlink" width="73.492" height="64.206" viewBox="0 0 73.492 64.206">
  <defs>
    <clipPath id="clip-path">
      <rect width="73.492" height="64.206" fill="none"/>
    </clipPath>
  </defs>
  <g id="notifcation" clip-path="url(#clip-path)">
    <path id="Path_1824" data-name="Path 1824" d="M73.574,15.761s0-.009,0-.014a1.409,1.409,0,0,0-.013-.184v0a1.383,1.383,0,0,0-.036-.174l-.008-.031c0-.009,0-.018-.008-.027a1.362,1.362,0,0,0-.05-.134l-.012-.027a1.448,1.448,0,0,0-.184-.3l-.017-.022a1.388,1.388,0,0,0-.116-.125l-.023-.022a1.588,1.588,0,0,0-.135-.111l-.017-.011a1.6,1.6,0,0,0-.154-.1l0,0h0a1.461,1.461,0,0,0-.167-.074l-.025-.009a1.486,1.486,0,0,0-.166-.047l-.032-.007a1.36,1.36,0,0,0-.172-.024h-.018c-.031,0-.062,0-.093,0H52.574q.048-.61.048-1.233a15.662,15.662,0,0,0-2.017-7.691,1.454,1.454,0,0,0-2.531,1.43,12.748,12.748,0,1,1-23.6,8.8,1.368,1.368,0,0,0-.046-.237A12.757,12.757,0,0,1,39.991.689a1.454,1.454,0,0,0,1.755-1.07,1.454,1.454,0,0,0-1.069-1.756A15.667,15.667,0,0,0,21.316,13.076c0,.414.017.825.049,1.232H1.536c-.032,0-.064,0-.1,0H1.424a1.492,1.492,0,0,0-.173.025l-.03.006a1.42,1.42,0,0,0-.167.048L1.03,14.4a1.4,1.4,0,0,0-.168.074h0l0,0a1.435,1.435,0,0,0-.155.094l-.017.011a1.5,1.5,0,0,0-.134.111l-.023.022a1.543,1.543,0,0,0-.116.126l-.016.022a1.44,1.44,0,0,0-.184.3c0,.009-.009.018-.012.027a1.322,1.322,0,0,0-.05.134c0,.009,0,.018-.008.027l-.008.032a1.394,1.394,0,0,0-.037.174.006.006,0,0,1,0,0,1.491,1.491,0,0,0-.012.184s0,.009,0,.014V60.175s0,.01,0,.015c0,.031,0,.061,0,.091s0,.035,0,.053.008.058.013.086.006.038.009.057.013.05.02.075.011.043.018.065.015.041.023.062.018.049.028.073.016.035.025.052.025.053.039.078.019.031.028.046.032.052.049.077a.1.1,0,0,1,.009.013l.02.024c.023.032.048.063.075.093s.026.03.04.043.05.05.077.075l.042.038a1.512,1.512,0,0,0,.122.092l.038.023c.032.02.066.04.1.058l.049.024c.033.015.066.03.1.043l.049.018c.035.012.071.023.108.032l.046.012a1.188,1.188,0,0,0,.119.021l.041.007c.05,0,.1.009.152.009H72.12l.041,0,.085,0,.068-.008.07-.011.075-.016c.021,0,.042-.009.062-.016s.05-.015.074-.023l.061-.022.068-.029.063-.03.059-.033.066-.04.05-.034.065-.049c.016-.012.031-.026.047-.039s.04-.035.059-.053.031-.032.047-.049.032-.035.048-.053.035-.043.051-.065.018-.022.027-.034.006-.009.009-.014c.018-.025.033-.05.049-.076s.019-.031.028-.046.027-.051.039-.077.018-.034.025-.052.019-.049.028-.073.016-.041.023-.062.012-.044.018-.067.013-.048.018-.072.007-.04.011-.06.009-.055.012-.083,0-.038,0-.057,0-.058,0-.088c0-.006,0-.011,0-.017V15.761ZM2.989,18.537,30.522,37.61c.263.182.533.351.808.507-.155.087-.31.177-.461.271-7.813,4.88-22.281,15.025-27.88,18.977ZM32.41,40.854a8.489,8.489,0,0,1,8.952.007c7.132,4.47,19.9,13.412,26.195,17.86H6.112C12.435,54.27,25.256,45.322,32.41,40.854Zm10.5-2.457c-.173-.109-.35-.211-.528-.309.257-.149.508-.307.755-.478L70.666,18.537V57.359C65.082,53.4,50.69,43.275,42.906,38.4Zm-5.937-9.668a15.68,15.68,0,0,0,15.1-11.514h15.39L41.309,35.268a7.885,7.885,0,0,1-8.962,0L6.2,17.215H21.872A15.681,15.681,0,0,0,36.969,28.729Zm0,0" transform="translate(-0.082 2.578)" fill="#969696"/>
    <path id="Path_1825" data-name="Path 1825" d="M50.548,289.244A1.454,1.454,0,0,0,52,287.79v-9.6a1.454,1.454,0,0,0-2.907,0v9.6A1.454,1.454,0,0,0,50.548,289.244Zm0,0" transform="translate(-43.455 -244.601)" fill="#969696"/>
    <path id="Path_1826" data-name="Path 1826" d="M52.2,408.885l-.033-.01a1.453,1.453,0,1,0-.84,2.783l.033.01a1.439,1.439,0,0,0,.421.063,1.454,1.454,0,0,0,.419-2.846Zm0,0" transform="translate(-44.513 -361.48)" fill="#969696"/>
    <path id="Path_1828" data-name="Path 1828" d="M382.82,26.484l.033.009a1.453,1.453,0,0,0,.843-2.782l-.033-.01a1.454,1.454,0,1,0-.843,2.782Zm0,0" transform="translate(-337.87 -20.622)" fill="#969696"/>
  </g>
</svg>
