<svg xmlns="http://www.w3.org/2000/svg" xmlns:xlink="http://www.w3.org/1999/xlink" width="237" height="237" viewBox="0 0 237 237">
  <defs>
    <clipPath id="clip-path">
      <rect width="237" height="237" fill="none"/>
    </clipPath>
  </defs>
  <g id="orange_circle" clip-path="url(#clip-path)">
    <g id="Path_1289" data-name="Path 1289" fill="none" opacity="0.053">
      <path d="M118.5,0A118.5,118.5,0,1,1,0,118.5,118.5,118.5,0,0,1,118.5,0Z" stroke="none"/>
      <path d="M 118.5 15 C 61.42991638183594 15 15 61.42991638183594 15 118.5 C 15 175.5700988769531 61.42991638183594 222 118.5 222 C 175.5700988769531 222 222 175.5700988769531 222 118.5 C 222 61.42991638183594 175.5700988769531 15 118.5 15 M 118.5 0 C 183.9457244873047 0 237 53.05427551269531 237 118.5 C 237 183.9457244873047 183.9457244873047 237 118.5 237 C 53.05427551269531 237 0 183.9457244873047 0 118.5 C 0 53.05427551269531 53.05427551269531 0 118.5 0 Z" stroke="none" fill="#dd7837"/>
    </g>
  </g>
</svg>
