<svg xmlns="http://www.w3.org/2000/svg" xmlns:xlink="http://www.w3.org/1999/xlink" width="72" height="57.597" viewBox="0 0 72 57.597">
  <defs>
    <clipPath id="clip-path">
      <rect width="72" height="57.597" fill="none"/>
    </clipPath>
  </defs>
  <g id="package" clip-path="url(#clip-path)">
    <path id="package-2" data-name="package" d="M66.8,24.146V59.8A1.8,1.8,0,0,1,65,61.6H11a1.8,1.8,0,0,1-1.8-1.8V24.146L2.13,6.468A1.8,1.8,0,0,1,3.8,4h36a1.8,1.8,0,0,1,1.671,1.131L47,18.953,52.528,5.131A1.8,1.8,0,0,1,54.2,4h18a1.8,1.8,0,0,1,1.671,2.468L66.8,24.146ZM48.8,25.6V58H63.2V25.6Zm-3.6,0H12.8V58H45.2ZM12.219,22H44.341L38.581,7.6H6.46Zm51.56,0,5.76-14.4H55.417L49.658,22ZM41.6,45.4v7.2a1.8,1.8,0,0,1-1.8,1.8H29a1.8,1.8,0,0,1-1.8-1.8V45.4A1.8,1.8,0,0,1,29,43.6H39.8A1.8,1.8,0,0,1,41.6,45.4ZM38,47.2H30.8v3.6H38Z" transform="translate(-2 -4)" fill="#969696"/>
  </g>
</svg>
