<svg xmlns="http://www.w3.org/2000/svg" xmlns:xlink="http://www.w3.org/1999/xlink" width="72" height="56.887" viewBox="0 0 72 56.887">
  <defs>
    <clipPath id="clip-path">
      <rect width="72" height="56.887" fill="none"/>
    </clipPath>
  </defs>
  <g id="photo-camera" clip-path="url(#clip-path)">
    <path id="Path_1807" data-name="Path 1807" d="M63.678,91.906H8.321A8.329,8.329,0,0,1,0,83.585V49.84a8.329,8.329,0,0,1,8.321-8.321h11.3l.989-3.335a4.1,4.1,0,0,1,4.034-3.165H47.361A4.185,4.185,0,0,1,51.4,38.2l.026.114.9,3.2h11.35A8.329,8.329,0,0,1,72,49.84V83.585A8.332,8.332,0,0,1,63.678,91.906ZM8.321,44.293A5.553,5.553,0,0,0,2.774,49.84V83.585a5.553,5.553,0,0,0,5.547,5.547H63.678a5.553,5.553,0,0,0,5.547-5.547V49.84a5.553,5.553,0,0,0-5.547-5.547H50.229L48.71,38.877a1.393,1.393,0,0,0-1.351-1.086H24.638a1.377,1.377,0,0,0-1.351,1.087l-1.6,5.414ZM36,83.523a17.6,17.6,0,1,1,17.6-17.6A17.621,17.621,0,0,1,36,83.523Zm0-32.429A14.827,14.827,0,1,0,50.826,65.921,14.845,14.845,0,0,0,36,51.094ZM61.888,49.44A2.559,2.559,0,1,0,64.445,52,2.559,2.559,0,0,0,61.888,49.44Z" transform="translate(0 -35.019)" fill="#fff"/>
  </g>
</svg>
