<svg xmlns="http://www.w3.org/2000/svg" xmlns:xlink="http://www.w3.org/1999/xlink" width="72" height="72" viewBox="0 0 72 72">
  <defs>
    <clipPath id="clip-path">
      <rect width="72" height="72" fill="none"/>
    </clipPath>
  </defs>
  <g id="plus_square" clip-path="url(#clip-path)">
    <path id="plus-square" d="M40.895,37.105H54.158a1.895,1.895,0,0,1,0,3.789H40.895V54.158a1.895,1.895,0,0,1-3.789,0V40.895H23.842a1.895,1.895,0,0,1,0-3.789H37.105V23.842a1.895,1.895,0,0,1,3.789,0ZM3,12.474A9.474,9.474,0,0,1,12.474,3H65.526A9.474,9.474,0,0,1,75,12.474V65.526A9.474,9.474,0,0,1,65.526,75H12.474A9.474,9.474,0,0,1,3,65.526Zm3.789,0V65.526a5.684,5.684,0,0,0,5.684,5.684H65.526a5.684,5.684,0,0,0,5.684-5.684V12.474a5.684,5.684,0,0,0-5.684-5.684H12.474A5.684,5.684,0,0,0,6.789,12.474Z" transform="translate(-3 -3)" fill="#5aacd0"/>
  </g>
</svg>
