<svg xmlns="http://www.w3.org/2000/svg" xmlns:xlink="http://www.w3.org/1999/xlink" width="62.043" height="62.043" viewBox="0 0 62.043 62.043">
  <defs>
    <clipPath id="clip-path">
      <rect width="62.043" height="62.043" fill="none"/>
    </clipPath>
  </defs>
  <g id="ride_gray" clip-path="url(#clip-path)">
    <g id="steering_x5F_wheel">
      <path id="Path_1812" data-name="Path 1812" d="M31.021,0A31.021,31.021,0,1,0,62.043,31.021,31.023,31.023,0,0,0,31.021,0Zm0,7.755A23.246,23.246,0,0,1,52.864,23.266H9.178A23.246,23.246,0,0,1,31.021,7.755Zm0,27.144A3.878,3.878,0,1,1,34.9,31.021,3.877,3.877,0,0,1,31.021,34.9ZM7.755,31.021c10.6,0,19.177,10.21,19.357,22.873A23.261,23.261,0,0,1,7.755,31.021ZM34.93,53.894c.18-12.663,8.762-22.873,19.357-22.873A23.261,23.261,0,0,1,34.93,53.894Z" fill="#575757"/>
    </g>
  </g>
</svg>
