<svg xmlns="http://www.w3.org/2000/svg" xmlns:xlink="http://www.w3.org/1999/xlink" width="429.242" height="429.242" viewBox="0 0 429.242 429.242">
  <defs>
    <clipPath id="clip-path">
      <rect width="429.242" height="429.242" fill="none"/>
    </clipPath>
  </defs>
  <g id="setting_placeholder" clip-path="url(#clip-path)">
    <g id="settings_1_" data-name="settings (1)" opacity="0.076">
      <path id="Path_1170" data-name="Path 1170" d="M407.144,166.928H366.986a15.419,15.419,0,0,1-10.906-26.319l28.394-28.386a22.117,22.117,0,0,0,0-31.263L348.282,44.768c-8.346-8.346-22.9-8.362-31.263,0L288.634,73.154a15.414,15.414,0,0,1-26.319-10.9V22.1A22.122,22.122,0,0,0,240.217,0H189.026a22.122,22.122,0,0,0-22.1,22.1V62.256a15.414,15.414,0,0,1-26.319,10.9L112.223,44.768c-8.362-8.362-22.917-8.346-31.263,0L44.768,80.96a22.117,22.117,0,0,0,0,31.263l28.394,28.386a15.419,15.419,0,0,1-10.906,26.319H22.1A22.122,22.122,0,0,0,0,189.026v51.183a22.124,22.124,0,0,0,22.1,22.106H62.256a15.419,15.419,0,0,1,10.906,26.319L44.768,317.019a22.117,22.117,0,0,0,0,31.263L80.96,384.474c8.354,8.354,22.9,8.37,31.263,0l28.386-28.394a15.419,15.419,0,0,1,26.319,10.906v40.158a22.122,22.122,0,0,0,22.1,22.1h51.183a22.122,22.122,0,0,0,22.1-22.1V366.986a15.419,15.419,0,0,1,26.319-10.906l28.386,28.394c8.362,8.362,22.917,8.346,31.263,0l36.191-36.192a22.117,22.117,0,0,0,0-31.263l-28.394-28.386a15.419,15.419,0,0,1,10.914-26.319h40.158a22.122,22.122,0,0,0,22.1-22.1V189.026A22.122,22.122,0,0,0,407.144,166.928Zm6.2,73.289a6.208,6.208,0,0,1-6.2,6.2H366.986a31.319,31.319,0,0,0-22.146,53.464l28.394,28.386a6.2,6.2,0,0,1,0,8.776l-36.191,36.191a6.2,6.2,0,0,1-8.776,0L299.881,344.84a31.319,31.319,0,0,0-53.464,22.146v40.158a6.208,6.208,0,0,1-6.2,6.2H189.026a6.208,6.208,0,0,1-6.2-6.2V366.986a30.83,30.83,0,0,0-19.332-28.934,31.678,31.678,0,0,0-12.186-2.472,30.881,30.881,0,0,0-21.947,9.253l-28.386,28.394a6.2,6.2,0,0,1-8.776,0L56.008,337.035a6.2,6.2,0,0,1,0-8.776L84.4,299.873a31.312,31.312,0,0,0-22.146-53.457H22.1a6.208,6.208,0,0,1-6.2-6.2V189.026a6.208,6.208,0,0,1,6.2-6.2H62.256A31.319,31.319,0,0,0,84.4,129.361L56.008,100.975a6.2,6.2,0,0,1,0-8.776L92.2,56.008a6.2,6.2,0,0,1,8.776,0l28.386,28.386a31.319,31.319,0,0,0,53.464-22.138V22.1a6.208,6.208,0,0,1,6.2-6.2h51.183a6.21,6.21,0,0,1,6.208,6.2V62.256A31.319,31.319,0,0,0,299.881,84.4l28.386-28.386a6.2,6.2,0,0,1,8.776,0l36.191,36.191a6.2,6.2,0,0,1,0,8.776L344.84,129.369a31.319,31.319,0,0,0,22.146,53.464h40.158a6.2,6.2,0,0,1,6.2,6.192Z" fill="#969696"/>
      <path id="Path_1171" data-name="Path 1171" d="M89.54,18a71.54,71.54,0,1,0,71.54,71.54A71.617,71.617,0,0,0,89.54,18Zm0,127.183A55.642,55.642,0,1,1,145.183,89.54,55.714,55.714,0,0,1,89.54,145.183Z" transform="translate(125.081 125.081)" fill="#969696"/>
    </g>
  </g>
</svg>
