<svg xmlns="http://www.w3.org/2000/svg" xmlns:xlink="http://www.w3.org/1999/xlink" width="72" height="72" viewBox="0 0 72 72">
  <defs>
    <clipPath id="clip-path">
      <rect width="72" height="72" fill="none"/>
    </clipPath>
  </defs>
  <g id="settings" clip-path="url(#clip-path)">
    <path id="Path_1170" data-name="Path 1170" d="M68.293,28H61.557a2.586,2.586,0,0,1-1.829-4.415l4.763-4.761a3.71,3.71,0,0,0,0-5.244L58.42,7.509a3.8,3.8,0,0,0-5.244,0l-4.761,4.761A2.586,2.586,0,0,1,44,10.443V3.707A3.711,3.711,0,0,0,40.293,0H31.707A3.711,3.711,0,0,0,28,3.707v6.736a2.586,2.586,0,0,1-4.415,1.828L18.824,7.509a3.8,3.8,0,0,0-5.244,0L7.509,13.58a3.71,3.71,0,0,0,0,5.244l4.763,4.761A2.586,2.586,0,0,1,10.443,28H3.707A3.711,3.711,0,0,0,0,31.707v8.585A3.711,3.711,0,0,0,3.707,44h6.736a2.586,2.586,0,0,1,1.829,4.415L7.509,53.176a3.71,3.71,0,0,0,0,5.244l6.071,6.071a3.794,3.794,0,0,0,5.244,0l4.761-4.763A2.586,2.586,0,0,1,28,61.557v6.736A3.711,3.711,0,0,0,31.707,72h8.585A3.711,3.711,0,0,0,44,68.293V61.557a2.586,2.586,0,0,1,4.415-1.829l4.761,4.763a3.8,3.8,0,0,0,5.244,0l6.071-6.071a3.71,3.71,0,0,0,0-5.244l-4.763-4.761A2.586,2.586,0,0,1,61.557,44h6.736A3.711,3.711,0,0,0,72,40.293V31.707A3.711,3.711,0,0,0,68.293,28Zm1.04,12.293a1.041,1.041,0,0,1-1.04,1.04H61.557A5.253,5.253,0,0,0,57.843,50.3l4.763,4.761a1.041,1.041,0,0,1,0,1.472l-6.071,6.071a1.041,1.041,0,0,1-1.472,0L50.3,57.843a5.253,5.253,0,0,0-8.968,3.715v6.736a1.041,1.041,0,0,1-1.04,1.04H31.707a1.041,1.041,0,0,1-1.04-1.04V61.557A5.171,5.171,0,0,0,27.424,56.7a5.314,5.314,0,0,0-2.044-.415A5.18,5.18,0,0,0,21.7,57.841L16.937,62.6a1.041,1.041,0,0,1-1.472,0L9.395,56.533a1.041,1.041,0,0,1,0-1.472L14.157,50.3a5.252,5.252,0,0,0-3.715-8.967H3.707a1.041,1.041,0,0,1-1.04-1.04V31.707a1.041,1.041,0,0,1,1.04-1.04h6.736A5.253,5.253,0,0,0,14.157,21.7L9.395,16.937a1.041,1.041,0,0,1,0-1.472l6.071-6.071a1.041,1.041,0,0,1,1.472,0L21.7,14.156a5.253,5.253,0,0,0,8.968-3.713V3.707a1.041,1.041,0,0,1,1.04-1.04h8.585a1.042,1.042,0,0,1,1.041,1.04v6.736A5.253,5.253,0,0,0,50.3,14.157L55.063,9.4a1.041,1.041,0,0,1,1.472,0l6.071,6.071a1.041,1.041,0,0,1,0,1.472L57.843,21.7a5.253,5.253,0,0,0,3.715,8.968h6.736a1.039,1.039,0,0,1,1.04,1.039Z" fill="#969696"/>
    <path id="Path_1171" data-name="Path 1171" d="M30,18A12,12,0,1,0,42,30,12.013,12.013,0,0,0,30,18Zm0,21.333A9.333,9.333,0,1,1,39.333,30,9.345,9.345,0,0,1,30,39.333Z" transform="translate(6 6)" fill="#969696"/>
  </g>
</svg>
