<svg xmlns="http://www.w3.org/2000/svg" xmlns:xlink="http://www.w3.org/1999/xlink" width="72" height="66.624" viewBox="0 0 72 66.624">
  <defs>
    <clipPath id="clip-path">
      <rect width="72" height="66.624" fill="none"/>
    </clipPath>
  </defs>
  <g id="shopping_cart" clip-path="url(#clip-path)">
    <g id="Group_187" data-name="Group 187" transform="translate(23.858 53.96)">
      <g id="Group_186" data-name="Group 186">
        <path id="Path_1273" data-name="Path 1273" d="M175.988,402.828a6.332,6.332,0,1,0,6.332,6.332A6.339,6.339,0,0,0,175.988,402.828Zm0,9.129a2.8,2.8,0,1,1,2.8-2.8A2.8,2.8,0,0,1,175.988,411.957Z" transform="translate(-169.656 -402.828)" fill="#fff"/>
      </g>
    </g>
    <g id="Group_189" data-name="Group 189" transform="translate(46.069 53.96)">
      <g id="Group_188" data-name="Group 188">
        <path id="Path_1274" data-name="Path 1274" d="M333.933,402.828a6.332,6.332,0,1,0,6.332,6.332A6.339,6.339,0,0,0,333.933,402.828Zm0,9.129a2.8,2.8,0,1,1,2.8-2.8A2.8,2.8,0,0,1,333.933,411.957Z" transform="translate(-327.601 -402.828)" fill="#fff"/>
      </g>
    </g>
    <g id="Group_191" data-name="Group 191" transform="translate(26.859 20.621)">
      <g id="Group_190" data-name="Group 190">
        <path id="Path_1275" data-name="Path 1275" d="M218.1,165.755H192.764a1.768,1.768,0,0,0,0,3.536H218.1a1.768,1.768,0,0,0,0-3.536Z" transform="translate(-190.996 -165.755)" fill="#fff"/>
      </g>
    </g>
    <g id="Group_193" data-name="Group 193" transform="translate(28.238 29.801)">
      <g id="Group_192" data-name="Group 192">
        <path id="Path_1276" data-name="Path 1276" d="M225.145,231.035H202.57a1.768,1.768,0,1,0,0,3.536h22.576a1.768,1.768,0,0,0,0-3.536Z" transform="translate(-200.802 -231.035)" fill="#fff"/>
      </g>
    </g>
    <g id="Group_195" data-name="Group 195">
      <g id="Group_194" data-name="Group 194" transform="translate(0 0)">
        <path id="Path_1277" data-name="Path 1277" d="M71.2,31.859a3.521,3.521,0,0,0-2.741-1.3H13.4l-1.112-5.4a3.54,3.54,0,0,0-2.055-2.53L2.472,19.261A1.768,1.768,0,0,0,1.064,22.5l7.759,3.368,8.554,41.521a3.549,3.549,0,0,0,3.463,2.822H63.191a1.768,1.768,0,0,0,0-3.536H20.84L19.8,61.629H63.519a3.549,3.549,0,0,0,3.463-2.822l4.945-24A3.522,3.522,0,0,0,71.2,31.859ZM63.519,58.093H19.071l-4.945-24H68.463Z" transform="translate(0 -19.114)" fill="#fff"/>
      </g>
    </g>
  </g>
</svg>
