<svg xmlns="http://www.w3.org/2000/svg" xmlns:xlink="http://www.w3.org/1999/xlink" width="70" height="70" viewBox="0 0 70 70">
  <defs>
    <clipPath id="clip-path">
      <rect width="70" height="70" fill="none"/>
    </clipPath>
  </defs>
  <g id="sign_out" clip-path="url(#clip-path)">
    <path id="sign-out" d="M9.639,38,21.875,50.236a1.944,1.944,0,1,1-2.75,2.75L3.57,37.43a1.944,1.944,0,0,1,0-2.75L19.125,19.125a1.944,1.944,0,0,1,2.75,2.75L9.639,34.111H51.611a1.944,1.944,0,0,1,0,3.889ZM32.167,6.889a1.944,1.944,0,0,1,0-3.889H63.278A9.722,9.722,0,0,1,73,12.722V63.278A9.722,9.722,0,0,1,63.278,73H32.167a1.944,1.944,0,0,1,0-3.889H63.278a5.833,5.833,0,0,0,5.833-5.833V12.722a5.833,5.833,0,0,0-5.833-5.833Z" transform="translate(-3 -3)" fill="#969696"/>
  </g>
</svg>
