<svg xmlns="http://www.w3.org/2000/svg" xmlns:xlink="http://www.w3.org/1999/xlink" width="53.093" height="43.126" viewBox="0 0 53.093 43.126">
  <defs>
    <clipPath id="clip-path">
      <rect width="53.093" height="43.127" fill="none"/>
    </clipPath>
  </defs>
  <g id="twitter-logo-silhouette" clip-path="url(#clip-path)">
    <g id="Group_5" data-name="Group 5">
      <path id="Path_1031" data-name="Path 1031" d="M53.094,62.544a21.751,21.751,0,0,1-6.254,1.715,10.937,10.937,0,0,0,4.787-6.022,21.957,21.957,0,0,1-6.921,2.644,10.9,10.9,0,0,0-18.559,9.93A30.922,30.922,0,0,1,3.7,59.432,10.9,10.9,0,0,0,7.071,73.97,10.892,10.892,0,0,1,2.138,72.6v.136a10.9,10.9,0,0,0,8.735,10.68A11.032,11.032,0,0,1,8,83.8a10.455,10.455,0,0,1-2.05-.2,10.9,10.9,0,0,0,10.172,7.564A21.852,21.852,0,0,1,2.6,95.817,23.148,23.148,0,0,1,0,95.667a30.787,30.787,0,0,0,16.695,4.9c20.035,0,30.987-16.6,30.987-30.987l-.037-1.41A21.749,21.749,0,0,0,53.094,62.544Z" transform="translate(-0.001 -57.441)" fill="#575757"/>
    </g>
  </g>
</svg>
