<svg xmlns="http://www.w3.org/2000/svg" xmlns:xlink="http://www.w3.org/1999/xlink" width="72" height="72" viewBox="0 0 72 72">
  <defs>
    <clipPath id="clip-path">
      <rect width="72" height="72" fill="none"/>
    </clipPath>
  </defs>
  <g id="user" clip-path="url(#clip-path)">
    <path id="user-2" data-name="user" d="M53.85,44.233,69.405,51.3A11.25,11.25,0,0,1,76,61.545v3.2A11.25,11.25,0,0,1,64.75,76H15.25A11.25,11.25,0,0,1,4,64.75v-3.2A11.25,11.25,0,0,1,10.595,51.3l15.555-7.07a22.5,22.5,0,1,1,27.7,0ZM30.826,47.051,12.457,55.4A6.75,6.75,0,0,0,8.5,61.545v3.2a6.75,6.75,0,0,0,6.75,6.75h49.5a6.75,6.75,0,0,0,6.75-6.75v-3.2A6.75,6.75,0,0,0,67.543,55.4L49.174,47.051a22.565,22.565,0,0,1-18.349,0ZM40,44.5a18,18,0,1,0-18-18A18,18,0,0,0,40,44.5Z" transform="translate(-4 -4)" fill="#aaa"/>
  </g>
</svg>
