<svg xmlns="http://www.w3.org/2000/svg" xmlns:xlink="http://www.w3.org/1999/xlink" width="55.833" height="55.833" viewBox="0 0 55.833 55.833">
  <defs>
    <clipPath id="clip-path">
      <rect width="55.833" height="55.833" fill="none"/>
    </clipPath>
  </defs>
  <g id="warning" clip-path="url(#clip-path)">
    <g id="Group_273" data-name="Group 273">
      <g id="Group_272" data-name="Group 272">
        <path id="Path_1836" data-name="Path 1836" d="M47.337,0H8.5A8.506,8.506,0,0,0,0,8.5V35.2a8.506,8.506,0,0,0,8.5,8.5H34.7L46.478,55.479a1.223,1.223,0,0,0,.859.354,1.242,1.242,0,0,0,.464-.092,1.214,1.214,0,0,0,.75-1.122V43.611A8.512,8.512,0,0,0,55.833,35.2V8.5A8.506,8.506,0,0,0,47.337,0Zm6.069,35.2a6.076,6.076,0,0,1-6.069,6.069,1.214,1.214,0,0,0-1.214,1.214v9.208L36.058,41.622a1.223,1.223,0,0,0-.859-.354H8.5A6.076,6.076,0,0,1,2.428,35.2V8.5A6.076,6.076,0,0,1,8.5,2.428h38.84A6.076,6.076,0,0,1,53.406,8.5Z" fill="#b7264b"/>
      </g>
    </g>
    <g id="Group_275" data-name="Group 275" transform="translate(24.275 29.13)">
      <g id="Group_274" data-name="Group 274">
        <path id="Path_1837" data-name="Path 1837" d="M216.974,256a3.641,3.641,0,1,0,3.641,3.641A3.646,3.646,0,0,0,216.974,256Zm0,4.855a1.214,1.214,0,1,1,1.214-1.214A1.216,1.216,0,0,1,216.974,260.855Z" transform="translate(-213.333 -256)" fill="#b7264b"/>
      </g>
    </g>
    <g id="Group_277" data-name="Group 277" transform="translate(23.062 7.282)">
      <g id="Group_276" data-name="Group 276">
        <path id="Path_1838" data-name="Path 1838" d="M211.408,65.16A3.652,3.652,0,0,0,208.742,64h-2.427a3.646,3.646,0,0,0-3.632,3.918l1.027,11.96a3.82,3.82,0,0,0,7.618.019l1.046-12A3.646,3.646,0,0,0,211.408,65.16Zm-1.452,2.549-1.049,12a1.393,1.393,0,0,1-2.78-.019L205.1,67.729a1.2,1.2,0,0,1,.323-.915,1.21,1.21,0,0,1,.888-.386h2.428a1.21,1.21,0,0,1,.888.386A1.191,1.191,0,0,1,209.956,67.709Z" transform="translate(-202.674 -64)" fill="#b7264b"/>
      </g>
    </g>
  </g>
</svg>
