<svg xmlns="http://www.w3.org/2000/svg" xmlns:xlink="http://www.w3.org/1999/xlink" width="69.327" height="72" viewBox="0 0 69.327 72">
  <defs>
    <clipPath id="clip-path">
      <rect width="69.327" height="72" fill="none"/>
    </clipPath>
  </defs>
  <g id="zoom_in" transform="translate(0)" clip-path="url(#clip-path)">
    <path id="Path_1813" data-name="Path 1813" d="M34.373,22.516H26.217V14.359a1.359,1.359,0,0,0-2.719,0v8.156H15.342a1.359,1.359,0,1,0,0,2.719H23.5V33.39a1.359,1.359,0,1,0,2.719,0V25.234h8.156a1.359,1.359,0,1,0,0-2.719Z" transform="translate(3.689 4.672)" fill="#fff"/>
    <path id="Path_1814" data-name="Path 1814" d="M69.931,69.7l-20.2-21.006a28.569,28.569,0,1,0-2.009,1.832L67.971,71.583a1.359,1.359,0,1,0,1.96-1.884ZM3.7,28.547A25.828,25.828,0,1,1,29.53,54.375,25.857,25.857,0,0,1,3.7,28.547Z" transform="translate(-0.983)" fill="#fff"/>
  </g>
</svg>
